<svg xmlns="http://www.w3.org/2000/svg" xmlns:xlink="http://www.w3.org/1999/xlink" style="margin:auto;background:rgba(241, 242, 243, 0);display:block;z-index:1;position:relative; filter: blur(15px); scale:2;" width="642" height="680" preserveAspectRatio="xMidYMid" viewBox="0 0 642 680">
<g transform="translate(321,340) scale(1,1) translate(-321,-340)"><path id="path0" d="M 203.7590188964526 345.17882617981934
c 0 34.02899407814756 -8.326243231887169 9.774285533084939 -18.100528764972108 9.774285533084939
S 167.5579613665084 379.2078202579669 167.5579613665084 345.17882617981934
s 8.326243231887169 -9.774285533084939 18.100528764972108 -9.774285533084939
S 203.7590188964526 311.1498321016718 203.7590188964526 345.17882617981934
z" fill="none" stroke="none"></path>
<circle cx="0" cy="0" r="6.8518041811240185" fill="#a827ca">
  <animateMotion begin="-4.32265294062567s" dur="5.19s" repeatCount="indefinite">
    <mpath xlink:href="#path0"></mpath>
  </animateMotion>
</circle><path id="path1" d="M 159.1482508103382 629.3441074481383
c 0 31.830766051474406 -7.788378927488418 9.142879610529883 -16.9312585380183 9.142879610529883
S 125.28573373430159 661.1748734996127 125.28573373430159 629.3441074481383
s 7.788378927488418 -9.142879610529883 16.9312585380183 -9.142879610529883
S 159.1482508103382 597.5133413966639 159.1482508103382 629.3441074481383
z" fill="none" stroke="none"></path>
<circle cx="0" cy="0" r="10.671619959680063" fill="#00e097">
  <animateMotion begin="-2.234044373799217s" dur="5.19s" repeatCount="indefinite">
    <mpath xlink:href="#path1"></mpath>
  </animateMotion>
</circle><path id="path2" d="M 516.1983898067948 16.81370173982974
c 0 35.74358132034693 -8.745769897531693 10.266773357971989 -19.012543255503683 10.266773357971989
S 478.17330329578743 52.557283060176665 478.17330329578743 16.81370173982974
s 8.745769897531693 -10.266773357971989 19.012543255503683 -10.266773357971989
S 516.1983898067948 -18.929879580517188 516.1983898067948 16.81370173982974
z" fill="none" stroke="none"></path>
<circle cx="0" cy="0" r="6.569456139893814" fill="#a827ca">
  <animateMotion begin="-4.001815580634369s" dur="5.19s" repeatCount="indefinite">
    <mpath xlink:href="#path2"></mpath>
  </animateMotion>
</circle><path id="path3" d="M 188.78703927496937 209.00274405162546
c 0 30.829887532779377 -7.543483119722612 8.85539322750046 -16.398876347223073 8.85539322750046
S 155.9892865805232 239.83263158440482 155.9892865805232 209.00274405162546
s 7.543483119722612 -8.85539322750046 16.398876347223073 -8.85539322750046
S 188.78703927496937 178.1728565188461 188.78703927496937 209.00274405162546
z" fill="none" stroke="none"></path>
<circle cx="0" cy="0" r="11.187585462783932" fill="#00e097">
  <animateMotion begin="-2.8714622426213845s" dur="5.19s" repeatCount="indefinite">
    <mpath xlink:href="#path3"></mpath>
  </animateMotion>
</circle><path id="path4" d="M 62.68701037033847 67.31132917519173
c 0 29.67364991647255 -7.260573915732643 8.523282422816584 -15.783856338549228 8.523282422816584
S 31.119297693240014 96.98497909166429 31.119297693240014 67.31132917519173
s 7.260573915732643 -8.523282422816584 15.783856338549228 -8.523282422816584
S 62.68701037033847 37.63767925871918 62.68701037033847 67.31132917519173
z" fill="none" stroke="none"></path>
<circle cx="0" cy="0" r="10.392865952517425" fill="#f21241">
  <animateMotion begin="-0.7462102704500964s" dur="5.19s" repeatCount="indefinite">
    <mpath xlink:href="#path4"></mpath>
  </animateMotion>
</circle><path id="path5" d="M 66.57151452449656 72.30981797355305
c 0 26.64797336753502 -6.520248802694739 7.654205116206867 -14.174453918901605 7.654205116206867
S 38.22260668669336 98.95779134108807 38.22260668669336 72.30981797355305
s 6.520248802694739 -7.654205116206867 14.174453918901605 -7.654205116206867
S 66.57151452449656 45.661844606018036 66.57151452449656 72.30981797355305
z" fill="none" stroke="none"></path>
<circle cx="0" cy="0" r="6.650132701297548" fill="#f21241">
  <animateMotion begin="-4.132396208984356s" dur="5.19s" repeatCount="indefinite">
    <mpath xlink:href="#path5"></mpath>
  </animateMotion>
</circle><path id="path6" d="M 214.2119404997877 118.94114542204814
c 0 31.800535735019373 -7.780982147930271 9.134196434526842 -16.915178582457113 9.134196434526842
S 180.38158333487345 150.74168115706752 180.38158333487345 118.94114542204814
s 7.780982147930271 -9.134196434526842 16.915178582457113 -9.134196434526842
S 214.2119404997877 87.14060968702876 214.2119404997877 118.94114542204814
z" fill="none" stroke="none"></path>
<circle cx="0" cy="0" r="7.462339833599895" fill="#01c0ed">
  <animateMotion begin="-0.018122480776283024s" dur="5.19s" repeatCount="indefinite">
    <mpath xlink:href="#path6"></mpath>
  </animateMotion>
</circle><path id="path7" d="M 609.3734111297359 443.24916468502363
c 0 34.524037520060695 -8.447370882568041 9.916478862145093 -18.363849744713136 9.916478862145093
S 572.6457116403097 477.7732022050843 572.6457116403097 443.24916468502363
s 8.447370882568041 -9.916478862145093 18.363849744713136 -9.916478862145093
S 609.3734111297359 408.72512716496294 609.3734111297359 443.24916468502363
z" fill="none" stroke="none"></path>
<circle cx="0" cy="0" r="6.690317724206437" fill="#3648ce">
  <animateMotion begin="-1.7963999665773787s" dur="5.19s" repeatCount="indefinite">
    <mpath xlink:href="#path7"></mpath>
  </animateMotion>
</circle><path id="path8" d="M 47.587372032110174 156.3404590414631
c 0 31.705156854078304 -7.757644762168095 9.106800372979938 -16.864445135148035 9.106800372979938
S 13.858481761814105 188.0456158955414 13.858481761814105 156.3404590414631
s 7.757644762168095 -9.106800372979938 16.864445135148035 -9.106800372979938
S 47.587372032110174 124.63530218738481 47.587372032110174 156.3404590414631
z" fill="none" stroke="none"></path>
<circle cx="0" cy="0" r="9.48282085764463" fill="#a827ca">
  <animateMotion begin="-2.379821336202833s" dur="5.19s" repeatCount="indefinite">
    <mpath xlink:href="#path8"></mpath>
  </animateMotion>
</circle><path id="path9" d="M 441.0435156355711 56.68919892663409
c 0 21.86816243063953 -5.350720594730948 6.281280698162418 -11.632001292893365 6.281280698162418
S 417.7795130497843 78.55736135727362 417.7795130497843 56.68919892663409
s 5.350720594730948 -6.281280698162418 11.632001292893365 -6.281280698162418
S 441.0435156355711 34.82103649599456 441.0435156355711 56.68919892663409
z" fill="none" stroke="none"></path>
<circle cx="0" cy="0" r="10.234007259267393" fill="#01c0ed">
  <animateMotion begin="-3.844998986889564s" dur="5.19s" repeatCount="indefinite">
    <mpath xlink:href="#path9"></mpath>
  </animateMotion>
</circle><path id="path10" d="M 505.5195620908261 199.5939482733475
c 0 37.39757585789432 -9.150470688633716 10.741856895352624 -19.89232758398634 10.741856895352624
S 465.73490692285344 236.99152413124182 465.73490692285344 199.5939482733475
s 9.150470688633716 -10.741856895352624 19.89232758398634 -10.741856895352624
S 505.5195620908261 162.1963724154532 505.5195620908261 199.5939482733475
z" fill="none" stroke="none"></path>
<circle cx="0" cy="0" r="11.358160749656717" fill="#a827ca">
  <animateMotion begin="-1.1378347438250973s" dur="5.19s" repeatCount="indefinite">
    <mpath xlink:href="#path10"></mpath>
  </animateMotion>
</circle><path id="path11" d="M 475.305700067226 500.2885673588476
c 0 35.31138193138026 -8.640018983210064 10.142630980290075 -18.78264996350014 10.142630980290075
S 437.7404001402257 535.5999492902279 437.7404001402257 500.2885673588476
s 8.640018983210064 -10.142630980290075 18.78264996350014 -10.142630980290075
S 475.305700067226 464.97718542746736 475.305700067226 500.2885673588476
z" fill="none" stroke="none"></path>
<circle cx="0" cy="0" r="11.769872977992286" fill="#f21241">
  <animateMotion begin="-3.9934413756045495s" dur="5.19s" repeatCount="indefinite">
    <mpath xlink:href="#path11"></mpath>
  </animateMotion>
</circle><path id="path12" d="M 579.3711245944911 172.42581008002324
c 0 31.794819860814428 -7.779583582965231 9.132554640872229 -16.91213822383746 9.132554640872229
S 545.5468481468162 204.22062994083768 545.5468481468162 172.42581008002324
s 7.779583582965231 -9.132554640872229 16.91213822383746 -9.132554640872229
S 579.3711245944911 140.6309902192088 579.3711245944911 172.42581008002324
z" fill="none" stroke="none"></path>
<circle cx="0" cy="0" r="6.739362798277108" fill="#3648ce">
  <animateMotion begin="-1.3214426850798697s" dur="5.19s" repeatCount="indefinite">
    <mpath xlink:href="#path12"></mpath>
  </animateMotion>
</circle><path id="path13" d="M 565.7349109058642 117.3514956418132
c 0 36.236009567540705 -8.866257660142937 10.40821551408084 -19.27447317422378 10.40821551408084
S 527.1859645574167 153.5875052093539 527.1859645574167 117.3514956418132
s 8.866257660142937 -10.40821551408084 19.27447317422378 -10.40821551408084
S 565.7349109058642 81.1154860742725 565.7349109058642 117.3514956418132
z" fill="none" stroke="none"></path>
<circle cx="0" cy="0" r="7.364533222527454" fill="#3648ce">
  <animateMotion begin="-1.5895516615697636s" dur="5.19s" repeatCount="indefinite">
    <mpath xlink:href="#path13"></mpath>
  </animateMotion>
</circle><path id="path14" d="M 339.6678346473459 402.17500894219563
c 0 25.118170041400578 -6.1459352228958855 7.214793522529953 -13.360728745425838 7.214793522529953
S 312.94637715649424 427.2931789835962 312.94637715649424 402.17500894219563
s 6.1459352228958855 -7.214793522529953 13.360728745425838 -7.214793522529953
S 339.6678346473459 377.05683890079507 339.6678346473459 402.17500894219563
z" fill="none" stroke="none"></path>
<circle cx="0" cy="0" r="6.249215640982684" fill="#01c0ed">
  <animateMotion begin="-3.818976408255898s" dur="5.19s" repeatCount="indefinite">
    <mpath xlink:href="#path14"></mpath>
  </animateMotion>
</circle><path id="path15" d="M 86.79260612598819 550.0689230088398
c 0 36.462321563745306 -8.921631871980233 10.47322002362897 -19.394851895609204 10.47322002362897
S 48.00290233476977 586.531244572585 48.00290233476977 550.0689230088398
s 8.921631871980233 -10.47322002362897 19.394851895609204 -10.47322002362897
S 86.79260612598819 513.6066014450945 86.79260612598819 550.0689230088398
z" fill="none" stroke="none"></path>
<circle cx="0" cy="0" r="6.417557154988227" fill="#00e097">
  <animateMotion begin="-3.949446681149269s" dur="5.19s" repeatCount="indefinite">
    <mpath xlink:href="#path15"></mpath>
  </animateMotion>
</circle><path id="path16" d="M 83.496338054223 54.640152516403894
c 0 36.3278675589541 -8.88873355165898 10.434600256295326 -19.323333807954306 10.434600256295326
S 44.849670438314384 90.968020075358 44.849670438314384 54.640152516403894
s 8.88873355165898 -10.434600256295326 19.323333807954306 -10.434600256295326
S 83.496338054223 18.312284957449798 83.496338054223 54.640152516403894
z" fill="none" stroke="none"></path>
<circle cx="0" cy="0" r="6.823667127523185" fill="#a827ca">
  <animateMotion begin="-3.8106487319977433s" dur="5.19s" repeatCount="indefinite">
    <mpath xlink:href="#path16"></mpath>
  </animateMotion>
</circle><path id="path17" d="M 181.66697595601784 145.8893309614376
c 0 24.084357149847317 -5.892981004749874 6.917847266445506 -12.81082827119538 6.917847266445506
S 156.04531941362706 169.9736881112849 156.04531941362706 145.8893309614376
s 5.892981004749874 -6.917847266445506 12.81082827119538 -6.917847266445506
S 181.66697595601784 121.80497381159027 181.66697595601784 145.8893309614376
z" fill="none" stroke="none"></path>
<circle cx="0" cy="0" r="9.392311633449593" fill="#f21241">
  <animateMotion begin="-0.2673525360006114s" dur="5.19s" repeatCount="indefinite">
    <mpath xlink:href="#path17"></mpath>
  </animateMotion>
</circle><path id="path18" d="M 532.8640273263305 519.5018437746752
c 0 19.221864024377222 -4.70322204851783 5.521173709129627 -10.224395757647457 5.521173709129627
S 512.4152358110356 538.7237077990524 512.4152358110356 519.5018437746752
s 4.70322204851783 -5.521173709129627 10.224395757647457 -5.521173709129627
S 532.8640273263305 500.27997975029797 532.8640273263305 519.5018437746752
z" fill="none" stroke="none"></path>
<circle cx="0" cy="0" r="8.482524460848136" fill="#3648ce">
  <animateMotion begin="-2.700639639944948s" dur="5.19s" repeatCount="indefinite">
    <mpath xlink:href="#path18"></mpath>
  </animateMotion>
</circle><path id="path19" d="M 204.6629113472406 518.4049188856784
c 0 29.243679624497457 -7.155368418760015 8.399780317674802 -15.555148736434816 8.399780317674802
S 173.55261387437093 547.6485985101758 173.55261387437093 518.4049188856784
s 7.155368418760015 -8.399780317674802 15.555148736434816 -8.399780317674802
S 204.6629113472406 489.1612392611809 204.6629113472406 518.4049188856784
z" fill="none" stroke="none"></path>
<circle cx="0" cy="0" r="9.390611785292307" fill="#a827ca">
  <animateMotion begin="-0.5952405538649392s" dur="5.19s" repeatCount="indefinite">
    <mpath xlink:href="#path19"></mpath>
  </animateMotion>
</circle><path id="path20" d="M 597.7826546810508 533.6639118210977
c 0 19.5985067756952 -4.795379317457336 5.6293583291890466 -10.424737646646383 5.6293583291890466
S 576.9331793877581 553.2624185967929 576.9331793877581 533.6639118210977
s 4.795379317457336 -5.6293583291890466 10.424737646646383 -5.6293583291890466
S 597.7826546810508 514.0654050454025 597.7826546810508 533.6639118210977
z" fill="none" stroke="none"></path>
<circle cx="0" cy="0" r="9.516657851740929" fill="#01c0ed">
  <animateMotion begin="-3.3335324153568444s" dur="5.19s" repeatCount="indefinite">
    <mpath xlink:href="#path20"></mpath>
  </animateMotion>
</circle><path id="path21" d="M 27.30148315406662 310.20360346321223
c 0 26.90937682643916 -6.584209223490433 7.729289088445292 -14.313498311935724 7.729289088445292
S -1.3255134698048288 337.1129802896514 -1.3255134698048288 310.20360346321223
s 6.584209223490433 -7.729289088445292 14.313498311935724 -7.729289088445292
S 27.30148315406662 283.2942266367731 27.30148315406662 310.20360346321223
z" fill="none" stroke="none"></path>
<circle cx="0" cy="0" r="11.173716354473951" fill="#01c0ed">
  <animateMotion begin="-3.65699127761474s" dur="5.19s" repeatCount="indefinite">
    <mpath xlink:href="#path21"></mpath>
  </animateMotion>
</circle><path id="path22" d="M 113.88141225604167 274.6919617125502
c 0 29.311169730850203 -7.171881955420794 8.419165773754846 -15.59104772917564 8.419165773754846
S 82.69931679769039 304.00313144340043 82.69931679769039 274.6919617125502
s 7.171881955420794 -8.419165773754846 15.59104772917564 -8.419165773754846
S 113.88141225604167 245.3807919817 113.88141225604167 274.6919617125502
z" fill="none" stroke="none"></path>
<circle cx="0" cy="0" r="10.254271491255558" fill="#01c0ed">
  <animateMotion begin="-4.440532815531512s" dur="5.19s" repeatCount="indefinite">
    <mpath xlink:href="#path22"></mpath>
  </animateMotion>
</circle><path id="path23" d="M 462.55280573183796 439.2773020263672
c 0 22.257268400914704 -5.445927374691895 6.393045178986139 -11.838972553678033 6.393045178986139
S 438.87486062448187 461.5345704272819 438.87486062448187 439.2773020263672
s 5.445927374691895 -6.393045178986139 11.838972553678033 -6.393045178986139
S 462.55280573183796 417.02003362545247 462.55280573183796 439.2773020263672
z" fill="none" stroke="none"></path>
<circle cx="0" cy="0" r="7.553872604267058" fill="#3648ce">
  <animateMotion begin="-4.864927103933096s" dur="5.19s" repeatCount="indefinite">
    <mpath xlink:href="#path23"></mpath>
  </animateMotion>
</circle><path id="path24" d="M 539.9870708351299 483.6934328108823
c 0 20.080174761481473 -4.9132342501497215 5.767709771914892 -10.680944022064613 5.767709771914892
S 518.6251827910006 503.7736075723638 518.6251827910006 483.6934328108823
s 4.9132342501497215 -5.767709771914892 10.680944022064613 -5.767709771914892
S 539.9870708351299 463.6132580494008 539.9870708351299 483.6934328108823
z" fill="none" stroke="none"></path>
<circle cx="0" cy="0" r="6.697759908300266" fill="#a827ca">
  <animateMotion begin="-1.2922691465262874s" dur="5.19s" repeatCount="indefinite">
    <mpath xlink:href="#path24"></mpath>
  </animateMotion>
</circle><path id="path25" d="M 531.4457804796 555.6243954059831
c 0 21.193151910569398 -5.18555844620315 6.087394697716743 -11.272953143919892 6.087394697716743
S 508.89987419176026 576.8175473165526 508.89987419176026 555.6243954059831
s 5.18555844620315 -6.087394697716743 11.272953143919892 -6.087394697716743
S 531.4457804796 534.4312434954137 531.4457804796 555.6243954059831
z" fill="none" stroke="none"></path>
<circle cx="0" cy="0" r="10.15477873868015" fill="#3648ce">
  <animateMotion begin="-1.9579856647499625s" dur="5.19s" repeatCount="indefinite">
    <mpath xlink:href="#path25"></mpath>
  </animateMotion>
</circle><path id="path26" d="M 421.608930183274 27.174349844585745
c 0 32.461965402322335 -7.942821321844826 9.324181551730884 -17.26700287357571 9.324181551730884
S 387.07492443612256 59.63631524690808 387.07492443612256 27.174349844585745
s 7.942821321844826 -9.324181551730884 17.26700287357571 -9.324181551730884
S 421.608930183274 -5.28761555773659 421.608930183274 27.174349844585745
z" fill="none" stroke="none"></path>
<circle cx="0" cy="0" r="8.200078913939372" fill="#a827ca">
  <animateMotion begin="-1.5422147143810214s" dur="5.19s" repeatCount="indefinite">
    <mpath xlink:href="#path26"></mpath>
  </animateMotion>
</circle><path id="path27" d="M 373.59265930346066 325.559102902579
c 0 23.582449248319044 -5.770173752248276 6.7736822309001505 -12.543855983148426 6.7736822309001505
S 348.5049473371638 349.14155215089806 348.5049473371638 325.559102902579
s 5.770173752248276 -6.7736822309001505 12.543855983148426 -6.7736822309001505
S 373.59265930346066 301.97665365425996 373.59265930346066 325.559102902579
z" fill="none" stroke="none"></path>
<circle cx="0" cy="0" r="6.417548792024476" fill="#f21241">
  <animateMotion begin="-2.8657868774207276s" dur="5.19s" repeatCount="indefinite">
    <mpath xlink:href="#path27"></mpath>
  </animateMotion>
</circle><path id="path28" d="M 446.8621605921526 537.8686436916822
c 0 31.57579090041779 -7.725991390527756 9.069642067141281 -16.795633457669037 9.069642067141281
S 413.27089367681447 569.4444345921 413.27089367681447 537.8686436916822
s 7.725991390527756 -9.069642067141281 16.795633457669037 -9.069642067141281
S 446.8621605921526 506.2928527912644 446.8621605921526 537.8686436916822
z" fill="none" stroke="none"></path>
<circle cx="0" cy="0" r="7.021685394643353" fill="#f21241">
  <animateMotion begin="-5.115217328776418s" dur="5.19s" repeatCount="indefinite">
    <mpath xlink:href="#path28"></mpath>
  </animateMotion>
</circle></g>
</svg>