<?xml version="1.0" encoding="utf-8"?>
<!-- Generator: Adobe Illustrator 16.0.3, SVG Export Plug-In . SVG Version: 6.00 Build 0)  -->
<!DOCTYPE svg PUBLIC "-//W3C//DTD SVG 1.1//EN" "http://www.w3.org/Graphics/SVG/1.1/DTD/svg11.dtd">
<svg version="1.1" id="Capa_1" xmlns="http://www.w3.org/2000/svg" xmlns:xlink="http://www.w3.org/1999/xlink" x="0px" y="0px"
	 width="800px" height="800px" viewBox="0 0 800 800" enable-background="new 0 0 800 800" xml:space="preserve">
<g>
	<defs>
		<rect id="SVGID_1_" x="0.001" y="0.001" width="799.999" height="799.999"/>
	</defs>
	<clipPath id="SVGID_2_">
		<use xlink:href="#SVGID_1_"  overflow="visible"/>
	</clipPath>
</g>
<g>
	<defs>
		<path id="SVGID_3_" d="M117.65,2.149C53.861,2.149,2.149,53.86,2.149,117.65v567.52c0,59.561,45.088,108.592,102.991,114.83
			h592.539c53.793-5.795,96.526-48.529,102.321-102.321V105.14c-6.238-57.902-55.27-102.99-114.831-102.99H117.65z"/>
	</defs>
	<clipPath id="SVGID_4_">
		<use xlink:href="#SVGID_3_"  overflow="visible"/>
	</clipPath>
	
		<linearGradient id="SVGID_5_" gradientUnits="userSpaceOnUse" x1="0" y1="800" x2="1" y2="800" gradientTransform="matrix(871.4686 503.1427 503.1427 -871.4686 -402548.5625 697324.5625)">
		<stop  offset="0" style="stop-color:#3648CE"/>
		<stop  offset="0.0918" style="stop-color:#3648CE"/>
		<stop  offset="0.398" style="stop-color:#3648CE"/>
		<stop  offset="0.7398" style="stop-color:#3648CE"/>
		<stop  offset="1" style="stop-color:#3648CE"/>
	</linearGradient>
	<polygon clip-path="url(#SVGID_4_)" fill="url(#SVGID_5_)" points="201.612,-343.33 1145.479,201.611 600.537,1145.479 
		-343.331,600.537 	"/>
</g>
<g>
	<defs>
		<rect id="SVGID_6_" width="800" height="800"/>
	</defs>
	<clipPath id="SVGID_7_">
		<use xlink:href="#SVGID_6_"  overflow="visible"/>
	</clipPath>
	<path clip-path="url(#SVGID_7_)" fill="#FFFFFF" d="M202.28,606.543c-31.964-5.529-42.242-15.214-45.029-18.012
		c-12.019-12.062-15.461-27.202-17.011-34.022c-1.105-4.86-1.32-7.869,0-42.026c1.155-29.912,1.56-33.847,4.002-40.026
		c5.491-13.896,10.646-12.222,16.011-26.017c2.444-6.286,2.303-9.016,4.002-41.027c1.387-26.123,1.689-28.231,0-33.021
		c-5.206-14.769-14.761-13.69-22.014-28.019c-3.119-6.161-3.675-10.95-2.001-48.031c1.786-39.575,2.82-42.984,4.002-46.029
		c8.11-20.89,26.097-31.694,36.024-38.025c19.051-12.149,182.118,2.002,182.118,2.002c48.789,5.351,68.382,16.446,77.05,26.016
		c1.793,1.979,6.642,7.782,12.008,7.006c8.012-1.159,7.657-15.595,17.012-27.019c12.098-14.775,33.465-16.002,51.033-17.011
		c5.238-0.3,20.908,2.131,52.033,7.005c22.219,3.479,37.873,6.599,57.038,14.009c13.128,5.076,19.741,9.118,25.017,15.677
		c1.817,2.261,7.472,9.787,10.006,28.353c1.295,9.483,1.235,17.896-4.002,54.035c-3.103,21.401-4.654,32.103-7.006,42.026
		c-3.959,16.718-8.353,29.083-12.508,40.777c-6.332,17.822-9.497,26.733-13.509,33.272c-5.904,9.622-9.203,12.104-10.006,19.012
		c-1.023,8.789,5.588,11.596,8.005,25.016c1.629,9.043,1.277,16.091,1.001,21.015c-0.649,11.57-2.028,36.14-19.013,60.038
		c-4.534,6.381-19.633,25.943-47.03,36.023c-16.914,6.223-31.18,6.129-39.026,6.004c-10.478-0.166-30.506-0.483-50.031-12.007
		c-15.32-9.041-16.337-16.721-27.019-18.012c-12.871-1.557-20.622,8.481-34.021,17.011c-18.042,11.484-38.925,12.313-80.052,15.01
		c-20.551,1.347-13.659-0.552-56.704,0.333C234.898,608.654,223.639,610.237,202.28,606.543"/>
	<path clip-path="url(#SVGID_7_)" fill="#00002C" d="M201.279,270.324l-1.001,49.032l24.016,1.001l1.001,172.111l-24.35,2.001
		l-0.333,47.364l150.098,0.667c3.666-0.709,8.83-1.814,14.926-3.482c6.817-1.866,22.15-6.063,36.44-13.861
		c4.075-2.223,25.279-14.142,42.361-39.359c13.292-19.622,17.566-37.702,19.68-47.03c6.237-27.538,2.994-49.78,1.668-57.371
		c-2.383-13.64-8.088-44.047-33.355-69.712c-4.084-4.148-23.035-22.756-52.367-31.021c-3.146-0.886-14.938-2.898-26.892-4.979
		c-7.579-1.319-13.855-2.343-18.138-3.025C290.448,271.881,245.864,271.103,201.279,270.324"/>
	<path clip-path="url(#SVGID_7_)" fill="#FFFFFF" d="M303.346,321.357l-0.334,172.112l32.021,1.334
		c0.918-0.279,2.211-0.697,3.731-1.275c0.942-0.356,10.007-3.878,17.95-10.733c9.337-8.056,13.684-17.748,17.428-26.1
		c1.656-3.693,5.95-13.827,8.255-27.935c2.887-17.665,1.004-31.449-0.333-40.693c-2.599-17.966-7.475-29.046-9.006-32.354
		c-3.203-6.925-6.284-11.217-7.859-13.28c-3.08-4.034-5.732-6.53-9.693-10.256c-5.637-5.303-8.645-7.112-11.257-8.318
		c-1.564-0.723-2.922-1.199-3.879-1.501C328.028,322.024,315.687,321.691,303.346,321.357"/>
	<path clip-path="url(#SVGID_7_)" fill="#D90306" d="M510.814,263.986l93.728,16.345c-2.286,33.158-8.378,58.796-13.342,75.716
		c0,0-5.612,19.127-35.69,90.059l-51.367-7.005c-0.685-6.666-1.531-15.869-2.229-26.843c-1.091-17.189-2.732-44.479-0.439-78.894
		C502.709,314.827,505.286,291.207,510.814,263.986"/>
	<path clip-path="url(#SVGID_7_)" fill="#D90306" d="M564.516,502.142c0,23.027-20.608,41.694-46.03,41.694
		s-46.029-18.667-46.029-41.694c0-23.026,20.607-41.693,46.029-41.693S564.516,479.115,564.516,502.142"/>
</g>
</svg>
