<?xml version="1.0" encoding="utf-8"?>
<!-- Generator: Adobe Illustrator 16.0.3, SVG Export Plug-In . SVG Version: 6.00 Build 0)  -->
<!DOCTYPE svg PUBLIC "-//W3C//DTD SVG 1.1//EN" "http://www.w3.org/Graphics/SVG/1.1/DTD/svg11.dtd">
<svg version="1.1" xmlns="http://www.w3.org/2000/svg" xmlns:xlink="http://www.w3.org/1999/xlink" x="0px" y="0px" viewBox="0 0 3000 1500" enable-background="new 0 0 3000 1500" xml:space="preserve">
<g id="Layer_1" display="none">
	<path display="inline" fill="#EDF1F4" d="M2791.537,989.437c-16.268-10.248-36.244-14.909-49.869-28.476
		c-29.129-29.004-13.637-77.268-10.995-118.29c5.349-83.068-61.27-164.442-143.759-175.601c-18.867-2.552-38.489-1.941-56.25-8.801
		c-49.588-19.155-60.72-82.683-89.257-127.534c-35.811-56.282-107.109-85.524-173.267-76.958
		c-66.156,8.567-125.402,51.868-159.718,109.074l-1.001,1.953c-44.838,43.151-119.249,51.541-172.57,19.456
		c-51.938-31.252-79.132-91.943-127.209-128.86c-46.736-35.887-109.811-45.745-168.014-36.554
		c-58.204,9.19-112.303,35.742-162.413,66.744c-23.104,14.293-45.716,29.675-70.633,40.505
		c-80.481,34.984-181.721,14.792-242.623-48.391c-14.524-15.067-26.974-32.334-43.599-45.046
		c-42.397-32.416-103.097-28.329-152.858-9.039s-93.465,51.55-142.177,73.356s-107.427,32.175-154.275,6.611
		c-29.719-16.217-51.749-45.369-83.485-57.162c-35.622-13.236-77.994-0.462-104.187,27.071
		c-26.192,27.533-37.005,67.52-33.59,105.367c2.4,26.606,11.256,52.474,11.805,79.182c1.139,55.38-37.933,109.172-90.95,125.216
		c-45.345,13.723-96.577,1.934-139.819,21.288c-51.211,22.921-75.937,85.638-68.437,141.241
		c7.5,55.603,40.976,104.434,79.476,145.246l2578.874,5.81C2839.474,1060.656,2826.018,1011.157,2791.537,989.437z"/>
	<g display="inline" opacity="0.47">
		<g>
			<polygon fill="#FFFFFF" points="708.347,1099.403 708.347,899.428 739.771,899.428 739.771,816.58 778.338,816.58 
				778.338,900.855 787.861,900.855 787.861,863.717 814.524,863.717 814.524,900.38 852.139,900.38 852.139,970.848 
				876.897,970.848 876.897,944.184 908.799,912.283 908.799,943.708 927.844,943.708 927.844,853.242 967.363,853.242 
				967.363,1099.403 			"/>
			<polygon fill="#FFFFFF" points="458.387,1099.403 458.387,899.428 489.812,899.428 489.812,816.58 528.379,816.58 
				528.379,900.855 537.902,900.855 537.902,863.717 564.565,863.717 564.565,900.38 602.18,900.38 602.18,970.848 626.938,970.848 
				626.938,944.184 658.839,912.283 658.839,943.708 677.885,943.708 677.885,853.242 717.404,853.242 717.404,1099.403 			"/>
			<polygon fill="#FFFFFF" points="208.428,1099.403 208.428,899.428 239.853,899.428 239.853,816.58 278.42,816.58 278.42,900.855 
				287.942,900.855 287.942,863.717 314.606,863.717 314.606,900.38 352.221,900.38 352.221,970.848 376.979,970.848 
				376.979,944.184 408.88,912.283 408.88,943.708 427.926,943.708 427.926,853.242 467.445,853.242 467.445,1099.403 			"/>
			<polygon fill="#FFFFFF" points="958.578,1099.403 958.578,899.428 990.003,899.428 990.003,816.58 1028.57,816.58 
				1028.57,900.855 1038.093,900.855 1038.093,863.717 1064.756,863.717 1064.756,900.38 1102.371,900.38 1102.371,970.848 
				1127.129,970.848 1127.129,944.184 1159.03,912.283 1159.03,943.708 1178.076,943.708 1178.076,853.242 1217.595,853.242 
				1217.595,1099.403 			"/>
			<polygon fill="#FFFFFF" points="1209.081,1099.403 1209.081,899.428 1240.505,899.428 1240.505,816.58 1279.072,816.58 
				1279.072,900.855 1288.595,900.855 1288.595,863.717 1315.258,863.717 1315.258,900.38 1352.873,900.38 1352.873,970.848 
				1377.632,970.848 1377.632,944.184 1409.533,912.283 1409.533,943.708 1428.578,943.708 1428.578,853.242 1468.097,853.242 
				1468.097,1099.403 			"/>
		</g>
		<g opacity="0.07">
			<path fill="#1F60B0" d="M386.498,821.929L386.498,821.929c0.316-1.209,0.486-2.477,0.486-3.785
				c0-8.224-6.667-14.891-14.891-14.891s-14.891,6.667-14.891,14.891c0,1.309,0.17,2.576,0.487,3.785h-0.001
				c0.001,0.004,0.003,0.007,0.004,0.01c0.384,1.462,0.986,2.834,1.767,4.083c2.674,5.899,6.282,12.65,12.634,22.996
				c5.766-9.867,10.375-18.108,12.824-23.309c0.688-1.163,1.222-2.426,1.575-3.765C386.494,821.939,386.496,821.934,386.498,821.929
				z"/>
			<circle fill="#FFFFFF" cx="372.094" cy="818.144" r="7.067"/>
		</g>
		<g opacity="0.07">
			<path fill="#1F60B0" d="M1295.542,754.956L1295.542,754.956c0.316-1.209,0.486-2.478,0.486-3.786
				c0-8.224-6.667-14.89-14.89-14.89c-8.224,0-14.891,6.667-14.891,14.89c0,1.309,0.17,2.577,0.487,3.786h-0.001
				c0.001,0.003,0.003,0.006,0.004,0.009c0.384,1.462,0.986,2.834,1.767,4.083c2.674,5.899,6.282,12.65,12.634,22.997
				c5.765-9.867,10.375-18.109,12.824-23.309c0.688-1.163,1.223-2.427,1.575-3.766
				C1295.538,754.966,1295.54,754.961,1295.542,754.956z"/>
			<circle fill="#FFFFFF" cx="1281.137" cy="751.17" r="7.067"/>
		</g>
		<g opacity="0.07">
			<path fill="#1F60B0" d="M1387.409,724.863L1387.409,724.863c0.316-1.209,0.486-2.478,0.486-3.786
				c0-8.224-6.667-14.891-14.891-14.891s-14.891,6.667-14.891,14.891c0,1.308,0.17,2.577,0.487,3.786h-0.001
				c0.001,0.003,0.003,0.006,0.004,0.009c0.384,1.461,0.986,2.833,1.767,4.083c2.674,5.899,6.282,12.65,12.634,22.996
				c5.766-9.867,10.375-18.108,12.824-23.308c0.688-1.163,1.222-2.427,1.575-3.765
				C1387.405,724.873,1387.408,724.868,1387.409,724.863z"/>
			<circle fill="#FFFFFF" cx="1373.005" cy="721.077" r="7.067"/>
		</g>
		<g opacity="0.07">
			<path fill="#1F60B0" d="M288.833,783.753L288.833,783.753c0.256-0.979,0.394-2.007,0.394-3.066c0-6.661-5.4-12.062-12.061-12.062
				s-12.062,5.4-12.062,12.062c0,1.06,0.138,2.087,0.395,3.066h-0.001c0.001,0.003,0.002,0.005,0.003,0.008
				c0.311,1.184,0.798,2.295,1.431,3.308c2.167,4.778,5.089,10.246,10.234,18.626c4.67-7.992,8.404-14.667,10.387-18.879
				c0.557-0.942,0.99-1.966,1.276-3.05C288.829,783.762,288.831,783.757,288.833,783.753z"/>
			<circle fill="#FFFFFF" cx="277.165" cy="780.687" r="5.724"/>
		</g>
	</g>
	<g display="inline" opacity="0.47">
		<g>
			<polygon fill="#FFFFFF" points="1908.454,1099.403 1908.454,899.428 1939.879,899.428 1939.879,816.58 1978.445,816.58 
				1978.445,900.855 1987.968,900.855 1987.968,863.717 2014.632,863.717 2014.632,900.38 2052.246,900.38 2052.246,970.848 
				2077.005,970.848 2077.005,944.184 2108.906,912.283 2108.906,943.708 2127.951,943.708 2127.951,853.242 2167.471,853.242 
				2167.471,1099.403 			"/>
			<polygon fill="#FFFFFF" points="1658.495,1099.403 1658.495,899.428 1689.92,899.428 1689.92,816.58 1728.486,816.58 
				1728.486,900.855 1738.009,900.855 1738.009,863.717 1764.672,863.717 1764.672,900.38 1802.287,900.38 1802.287,970.848 
				1827.046,970.848 1827.046,944.184 1858.947,912.283 1858.947,943.708 1877.992,943.708 1877.992,853.242 1917.511,853.242 
				1917.511,1099.403 			"/>
			<polygon fill="#FFFFFF" points="1408.536,1099.403 1408.536,899.428 1439.96,899.428 1439.96,816.58 1478.527,816.58 
				1478.527,900.855 1488.05,900.855 1488.05,863.717 1514.713,863.717 1514.713,900.38 1552.328,900.38 1552.328,970.848 
				1577.087,970.848 1577.087,944.184 1608.987,912.283 1608.987,943.708 1628.033,943.708 1628.033,853.242 1667.552,853.242 
				1667.552,1099.403 			"/>
			<polygon fill="#FFFFFF" points="2158.686,1099.403 2158.686,899.428 2190.11,899.428 2190.11,816.58 2228.677,816.58 
				2228.677,900.855 2238.2,900.855 2238.2,863.717 2264.863,863.717 2264.863,900.38 2302.478,900.38 2302.478,970.848 
				2327.236,970.848 2327.236,944.184 2359.138,912.283 2359.138,943.708 2378.184,943.708 2378.184,853.242 2417.702,853.242 
				2417.702,1099.403 			"/>
			<polygon fill="#FFFFFF" points="2409.188,1099.403 2409.188,899.428 2440.613,899.428 2440.613,816.58 2479.18,816.58 
				2479.18,900.855 2488.702,900.855 2488.702,863.717 2515.365,863.717 2515.365,900.38 2552.98,900.38 2552.98,970.848 
				2577.739,970.848 2577.739,944.184 2609.64,912.283 2609.64,943.708 2628.686,943.708 2628.686,853.242 2668.204,853.242 
				2668.204,1099.403 			"/>
		</g>
		<g opacity="0.07">
			<path fill="#1F60B0" d="M1586.605,821.929L1586.605,821.929c0.315-1.209,0.486-2.477,0.486-3.785
				c0-8.224-6.667-14.891-14.891-14.891s-14.891,6.667-14.891,14.891c0,1.309,0.17,2.576,0.487,3.785h-0.001
				c0.001,0.004,0.002,0.007,0.004,0.01c0.384,1.462,0.985,2.834,1.766,4.083c2.675,5.899,6.282,12.65,12.635,22.996
				c5.766-9.867,10.375-18.108,12.824-23.309c0.688-1.163,1.223-2.426,1.574-3.765
				C1586.602,821.939,1586.604,821.934,1586.605,821.929z"/>
			<circle fill="#FFFFFF" cx="1572.201" cy="818.144" r="7.066"/>
		</g>
		<g opacity="0.07">
			<path fill="#1F60B0" d="M2495.648,754.956L2495.648,754.956c0.316-1.209,0.486-2.478,0.486-3.786
				c0-8.224-6.667-14.89-14.891-14.89s-14.89,6.667-14.89,14.89c0,1.309,0.17,2.577,0.486,3.786h-0.001
				c0.001,0.003,0.003,0.006,0.004,0.009c0.384,1.462,0.986,2.834,1.767,4.083c2.674,5.899,6.282,12.65,12.634,22.997
				c5.766-9.867,10.376-18.109,12.824-23.309c0.688-1.163,1.223-2.427,1.575-3.766
				C2495.645,754.966,2495.647,754.961,2495.648,754.956z"/>
			<circle fill="#FFFFFF" cx="2481.244" cy="751.17" r="7.066"/>
		</g>
		<g opacity="0.07">
			<path fill="#1F60B0" d="M2587.517,724.863L2587.517,724.863c0.315-1.209,0.486-2.478,0.486-3.786
				c0-8.224-6.667-14.891-14.891-14.891s-14.891,6.667-14.891,14.891c0,1.308,0.17,2.577,0.487,3.786h-0.002
				c0.002,0.003,0.003,0.006,0.004,0.009c0.385,1.461,0.986,2.833,1.768,4.083c2.674,5.899,6.281,12.65,12.634,22.996
				c5.766-9.867,10.376-18.108,12.824-23.308c0.688-1.163,1.223-2.427,1.574-3.765
				C2587.513,724.873,2587.515,724.868,2587.517,724.863z"/>
			<circle fill="#FFFFFF" cx="2573.112" cy="721.077" r="7.067"/>
		</g>
		<g opacity="0.07">
			<path fill="#1F60B0" d="M1488.939,783.753L1488.939,783.753c0.256-0.979,0.394-2.007,0.394-3.066
				c0-6.661-5.4-12.062-12.062-12.062c-6.661,0-12.061,5.4-12.061,12.062c0,1.06,0.138,2.087,0.395,3.066h-0.001
				c0.001,0.003,0.002,0.005,0.003,0.008c0.311,1.184,0.798,2.295,1.431,3.308c2.166,4.778,5.088,10.246,10.233,18.626
				c4.67-7.992,8.404-14.667,10.388-18.879c0.557-0.942,0.99-1.966,1.275-3.05C1488.937,783.762,1488.938,783.757,1488.939,783.753z
				"/>
			<circle fill="#FFFFFF" cx="1477.272" cy="780.687" r="5.724"/>
		</g>
	</g>
	<g display="inline">
		<g>
			<path fill="#E7EEFE" d="M2331.699,1093.523h-77.396V764.699c30.226-30.226,47.172-47.171,77.396-77.396l0,0V1093.523z"/>
			<rect x="2268.951" y="769.509" fill="#FFFFFF" width="14.867" height="20.114"/>
			<rect x="2302.184" y="769.509" fill="#FFFFFF" width="14.867" height="20.114"/>
			<polygon fill="#FFFFFF" points="2283.818,824.151 2268.951,825.527 2268.951,805.413 2283.818,804.037 			"/>
			<rect x="2302.184" y="804.037" fill="#FFFFFF" width="14.867" height="20.114"/>
			<polygon fill="#FFFFFF" points="2283.818,860.056 2268.951,861.432 2268.951,841.317 2283.818,839.941 			"/>
			<rect x="2302.184" y="839.941" fill="#FFFFFF" width="14.867" height="20.114"/>
			<rect x="2268.951" y="875.846" fill="#FFFFFF" width="14.867" height="20.114"/>
			<polygon fill="#FFFFFF" points="2317.051,897.337 2302.184,897.337 2302.184,875.846 2317.051,877.223 			"/>
		</g>
		<g>
			<g>
				<g>
					<rect x="2331.97" y="658.443" fill="#CBDBFD" width="93.138" height="435.081"/>
					<rect x="2360.174" y="638.766" fill="#CBDBFD" width="36.73" height="19.677"/>
				</g>
				<rect x="2377.147" y="595.477" fill="#CBDBFD" width="2.782" height="43.29"/>
			</g>
			<rect x="2346.971" y="693.688" fill="#FFFFFF" width="14.867" height="20.114"/>
			<rect x="2391.043" y="696.013" fill="#FFFFFF" width="14.867" height="20.114"/>
			<rect x="2346.971" y="728.073" fill="#FFFFFF" width="14.867" height="20.114"/>
			<rect x="2389.629" y="728.983" fill="#FFFFFF" width="14.867" height="20.114"/>
			<rect x="2346.971" y="762.458" fill="#FFFFFF" width="14.867" height="20.114"/>
			<rect x="2389.629" y="763.368" fill="#FFFFFF" width="14.867" height="20.114"/>
			<rect x="2346.971" y="796.844" fill="#FFFFFF" width="14.867" height="20.114"/>
			<rect x="2389.629" y="797.754" fill="#FFFFFF" width="14.867" height="20.114"/>
			<rect x="2346.971" y="831.229" fill="#FFFFFF" width="14.867" height="20.115"/>
			<rect x="2389.629" y="832.139" fill="#FFFFFF" width="14.867" height="20.114"/>
			<rect x="2346.971" y="865.614" fill="#FFFFFF" width="14.867" height="20.114"/>
			<rect x="2389.629" y="866.524" fill="#FFFFFF" width="14.867" height="20.114"/>
		</g>
		<g>
			<rect x="2425.107" y="789.623" fill="#E7EEFE" width="66.632" height="303.9"/>
			<rect x="2436.713" y="832.548" fill="#FFFFFF" width="14.867" height="20.114"/>
			<rect x="2464.504" y="832.548" fill="#FFFFFF" width="14.867" height="20.114"/>
			<rect x="2436.713" y="864.979" fill="#FFFFFF" width="14.867" height="20.114"/>
			<rect x="2464.504" y="864.979" fill="#FFFFFF" width="14.867" height="20.114"/>
			<rect x="2436.713" y="897.409" fill="#FFFFFF" width="14.867" height="20.114"/>
			<rect x="2464.504" y="897.409" fill="#FFFFFF" width="14.867" height="20.114"/>
			<rect x="2436.713" y="929.84" fill="#FFFFFF" width="14.867" height="20.114"/>
			<rect x="2464.504" y="929.84" fill="#FFFFFF" width="14.867" height="20.114"/>
		</g>
		<g>
			<path fill="#CBDBFD" d="M2564.374,1093.523h-72.635V767.322l0,0c40.115,0,72.635,32.52,72.635,72.635V1093.523z"/>
			<rect x="2504.007" y="854.849" fill="#FFFFFF" width="14.867" height="20.114"/>
			<rect x="2537.239" y="854.849" fill="#FFFFFF" width="14.867" height="20.114"/>
			<rect x="2504.007" y="890.753" fill="#FFFFFF" width="14.867" height="20.114"/>
			<rect x="2537.239" y="890.753" fill="#FFFFFF" width="14.867" height="20.114"/>
			<rect x="2504.007" y="926.658" fill="#FFFFFF" width="14.867" height="20.114"/>
			<rect x="2537.239" y="926.658" fill="#FFFFFF" width="14.867" height="20.114"/>
			<rect x="2504.007" y="962.563" fill="#FFFFFF" width="14.867" height="20.114"/>
			<rect x="2537.239" y="962.563" fill="#FFFFFF" width="14.867" height="20.114"/>
		</g>
		<g>
			<rect x="2166.85" y="825.527" fill="#CBDBFD" width="87.453" height="267.996"/>
			<rect x="2183.952" y="860.897" fill="#FFFFFF" width="14.866" height="20.114"/>
			<rect x="2217.184" y="860.897" fill="#FFFFFF" width="14.867" height="20.114"/>
			<rect x="2183.952" y="898.648" fill="#FFFFFF" width="14.866" height="20.114"/>
			<rect x="2217.184" y="898.648" fill="#FFFFFF" width="14.867" height="20.114"/>
			<rect x="2183.952" y="936.399" fill="#FFFFFF" width="14.866" height="20.114"/>
			<rect x="2217.184" y="936.399" fill="#FFFFFF" width="14.867" height="20.114"/>
			<rect x="2183.952" y="974.149" fill="#FFFFFF" width="14.866" height="20.114"/>
			<rect x="2217.184" y="974.149" fill="#FFFFFF" width="14.867" height="20.114"/>
		</g>
	</g>
	<g display="inline">
		<linearGradient id="SVGID_1_" gradientUnits="userSpaceOnUse" x1="2337.0273" y1="830.0879" x2="2417.2686" y2="830.0879">
			<stop  offset="0" style="stop-color:#FFC572"/>
			<stop  offset="1" style="stop-color:#FF4EB3"/>
		</linearGradient>
		<path fill="url(#SVGID_1_)" d="M2415.959,818.754h-0.003c0.854-3.257,1.313-6.675,1.313-10.2c0-22.157-17.963-40.12-40.121-40.12
			s-40.12,17.963-40.12,40.12c0,3.525,0.458,6.943,1.313,10.2h-0.004c0.004,0.009,0.007,0.018,0.011,0.026
			c1.035,3.937,2.656,7.635,4.76,11.001c7.206,15.895,16.927,34.085,34.042,61.961c15.534-26.585,27.955-48.791,34.553-62.803
			c1.853-3.133,3.294-6.538,4.243-10.144C2415.949,818.782,2415.954,818.768,2415.959,818.754z"/>
		<circle fill="#FFFFFF" cx="2377.148" cy="808.555" r="19.041"/>
	</g>
	<g display="inline">
		<g>
			<linearGradient id="SVGID_2_" gradientUnits="userSpaceOnUse" x1="2255.5195" y1="934.252" x2="2542.3657" y2="1004.2147">
				<stop  offset="0" style="stop-color:#68D2FF"/>
				<stop  offset="1" style="stop-color:#2287D9"/>
			</linearGradient>
			<polygon fill="url(#SVGID_2_)" points="2374.919,992.078 2471.646,992.078 2423.282,951.578 2374.919,911.078 2326.556,951.578 
				2278.192,992.078 			"/>
			<linearGradient id="SVGID_3_" gradientUnits="userSpaceOnUse" x1="2237.2344" y1="1009.2197" x2="2524.0823" y2="1079.1829">
				<stop  offset="0" style="stop-color:#68D2FF"/>
				<stop  offset="1" style="stop-color:#2287D9"/>
			</linearGradient>
			<rect x="2297.96" y="992.078" fill="url(#SVGID_3_)" width="153.918" height="101.445"/>
		</g>
		<g>
			<rect x="2365.875" y="957.555" fill="#FFFFFF" width="9.555" height="10.874"/>
			<rect x="2378.556" y="957.555" fill="#FFFFFF" width="9.555" height="10.874"/>
			<rect x="2365.875" y="970.928" fill="#FFFFFF" width="9.555" height="10.874"/>
			<rect x="2378.556" y="970.928" fill="#FFFFFF" width="9.555" height="10.874"/>
		</g>
		<rect x="2358.858" y="1024.727" fill="#FFFFFF" width="39.618" height="68.797"/>
	</g>
	<path display="inline" fill="#DBE2F2" d="M543.489,617.613c-3.76,0-7.272,1.026-10.304,2.789
		c-2.747-7.979-10.3-13.721-19.211-13.721c-1.457,0-2.875,0.16-4.245,0.451c-3.512-14.073-16.232-24.501-31.392-24.501
		c-15.034,0-27.669,10.253-31.304,24.147c-0.639-0.045-1.277-0.097-1.928-0.097c-4.943,0-9.563,1.344-13.552,3.655
		c-3.722-2.303-8.095-3.655-12.793-3.655c-13.463,0-24.378,10.914-24.378,24.377h23.75h25.005h7.119h17.101h4.72h4.436h17.533
		h12.372h17.808h0.536h9.141h28.852C559.858,623.216,552.338,617.613,543.489,617.613z"/>
	<path display="inline" fill="#FFFFFF" d="M880.006,697.341c3.759,0,7.272,1.026,10.304,2.789
		c2.747-7.979,10.3-13.721,19.212-13.721c1.457,0,2.875,0.16,4.245,0.451c3.511-14.073,16.231-24.5,31.392-24.5
		c15.033,0,27.669,10.253,31.304,24.147c0.64-0.045,1.277-0.097,1.928-0.097c4.943,0,9.563,1.344,13.553,3.655
		c3.722-2.303,8.094-3.655,12.793-3.655c13.463,0,24.377,10.914,24.377,24.377h-23.75h-25.005h-7.119h-17.101h-4.72h-4.437h-17.533
		h-12.372H899.27h-0.536h-9.141h-28.851C863.637,702.944,871.157,697.341,880.006,697.341z"/>
	<linearGradient id="SVGID_4_" gradientUnits="userSpaceOnUse" x1="1238.2461" y1="1102.4063" x2="1165.0159" y2="1052.665">
		<stop  offset="0" style="stop-color:#AEC9E8"/>
		<stop  offset="0.2148" style="stop-color:#B5CDE9"/>
		<stop  offset="0.5259" style="stop-color:#C8D9EC"/>
		<stop  offset="0.8942" style="stop-color:#E8ECF0"/>
		<stop  offset="1" style="stop-color:#F2F2F2"/>
	</linearGradient>
	<path display="inline" fill="url(#SVGID_4_)" d="M1167.873,1092.931c-1.949-2.113-2.133-5.634-0.416-7.938s5.144-3.136,7.726-1.872
		c-0.543-2.207-0.103-4.791,1.625-6.267c1.729-1.475,4.824-1.257,5.902,0.744c-0.508-2.529,0.387-5.396,2.508-6.864
		s5.412-1.139,6.917,0.957c0.042-3.031,0.174-6.319,2.102-8.658c1.928-2.339,6.354-2.679,7.606,0.082
		c1.169-2.732,4.089-4.614,7.06-4.551c2.971,0.064,5.808,2.069,6.858,4.85c2.67-2.906,6.981-4.19,10.806-3.218
		s6.999,4.161,7.956,7.989c0.195,0.778,0.465,1.748,1.256,1.886c0.375,0.065,0.747-0.095,1.112-0.205
		c2.307-0.699,4.833,0.694,6.208,2.674c1.374,1.98,1.854,4.426,2.303,6.794c2.683-2.35,7.732-0.274,7.989,3.282
		c1.74-1.216,3.992-2.473,5.848-1.441c0.804,0.446,1.349,1.254,2.121,1.753c0.772,0.5,2.031,0.519,2.399-0.324
		c1.16,1.813,1.908,3.889,2.169,6.025c2.134-1.632,5.247-1.858,7.595-0.555c2.349,1.305,3.801,4.066,3.544,6.74L1167.873,1092.931z"
		/>
	<path display="inline" fill="#DBE2F2" d="M2566.771,713.841c4.313,0,8.342,1.177,11.82,3.2c3.15-9.153,11.816-15.74,22.039-15.74
		c1.671,0,3.298,0.183,4.87,0.517c4.028-16.144,18.62-28.106,36.012-28.106c17.245,0,31.741,11.762,35.91,27.701
		c0.734-0.052,1.466-0.111,2.213-0.111c5.67,0,10.97,1.542,15.547,4.192c4.27-2.642,9.285-4.192,14.676-4.192
		c15.444,0,27.965,12.52,27.965,27.965h-27.246h-28.685h-8.166h-19.618h-5.415h-5.089h-20.113h-14.192h-20.429h-0.614h-10.486
		h-33.097C2547.994,720.269,2556.62,713.841,2566.771,713.841z"/>
	<path display="inline" fill="#FFFFFF" d="M1608.169,673.292h-28.852h-9.141h-0.535h-17.809h-12.371h-17.533h-4.437h-4.72h-17.101
		h-7.119h-25.005h-23.75c0-13.463,10.914-24.377,24.378-24.377c2.911,0,5.69,0.537,8.278,1.472c4.798-4.3,11.117-6.938,18.067-6.938
		c3.253,0,6.358,0.603,9.248,1.653c3.137-3.675,7.794-6.012,13.004-6.012c3.675,0,7.069,1.169,9.856,3.141
		c5.125-7.448,13.7-12.337,23.424-12.337c13.62,0,24.988,9.585,27.763,22.375c3.755-4.069,9.116-6.633,15.09-6.633
		c11.351,0,20.552,9.201,20.552,20.552C1609.457,668.688,1608.987,671.075,1608.169,673.292z"/>
	<g display="inline">
		<path fill="#DAE3F2" d="M1226.368,1018.119c2.03-3.43,2.814-7.832,1.093-11.426c-1.722-3.594-6.397-5.792-9.958-4.004
			c0.922-10.345,0.186-20.837-2.172-30.952c-1.296-5.559-3.311-11.35-7.822-14.846c-6.892-5.342-17.784-2.987-23.369,3.709
			c-5.585,6.696-6.435,16.413-4.087,24.811c-6.138-1.7-13.546-1.415-17.837,3.292c-4.868,5.34-3.643,13.646-2.113,20.708
			c1.297,5.986,2.969,12.554,8.022,16.016c-6.13,0.703-13.499,2.367-15.386,8.242c-1.074,3.344,0.145,7.039,2.088,9.965
			c6.448,9.709,19.398,12.547,31.051,12.834h5.76c3.227,0.318,6.422-0.993,9.331-2.207c3.018-1.26,6.152-2.213,9.204-3.386
			c4.817-1.853,9.968-4.379,12.25-9.289c2.421-5.208,0.796-12.385-4.343-14.95
			C1221.221,1024.182,1224.338,1021.548,1226.368,1018.119z"/>
		<path fill="#F8F5FF" d="M1194.555,1092.703c0-21.342,0-42.684,0-64.025c0-6.062,0-12.124,0-18.186c0-3.458-5.373-3.463-5.373,0
			c0,21.342,0,42.684,0,64.024c0,6.063,0,12.124,0,18.187C1189.182,1096.16,1194.555,1096.166,1194.555,1092.703L1194.555,1092.703z
			"/>
		<path fill="#F8F5FF" d="M1195.005,1036.77c5.883-2.596,10.41-8.024,12.124-14.194c0.375-1.354-0.464-2.983-1.877-3.305
			c-1.422-0.324-2.902,0.427-3.305,1.876c-0.184,0.662-0.409,1.307-0.65,1.95c-0.228,0.605,0.25-0.542-0.018,0.047
			c-0.078,0.17-0.154,0.341-0.235,0.509c-0.134,0.281-0.275,0.56-0.423,0.833c-0.326,0.604-0.683,1.189-1.07,1.755
			c-0.105,0.154-0.213,0.308-0.323,0.459c-0.092,0.125-0.376,0.64-0.031,0.053c-0.166,0.282-0.442,0.547-0.656,0.792
			c-0.451,0.517-0.929,1.01-1.431,1.477c-0.251,0.233-0.508,0.461-0.771,0.681c-0.136,0.114-0.279,0.271-0.435,0.354
			c0.257-0.135,0.319-0.241,0.023-0.023c-1.131,0.832-2.349,1.532-3.634,2.099c-1.29,0.569-1.688,2.552-0.964,3.676
			C1192.191,1037.143,1193.625,1037.379,1195.005,1036.77L1195.005,1036.77z"/>
		<path fill="#F8F5FF" d="M1190.947,1043.845c-1.583-0.377-3.168-0.756-4.714-1.266c-0.346-0.114-0.69-0.235-1.031-0.364
			c-0.189-0.072-0.377-0.146-0.564-0.222c0.357,0.146,0.047,0.017-0.136-0.067c-0.72-0.331-1.42-0.707-2.083-1.143
			c-0.147-0.097-0.292-0.199-0.437-0.3c-0.24-0.167-0.134-0.108,0.035,0.034c-0.272-0.23-0.545-0.455-0.804-0.702
			c-0.257-0.245-0.503-0.501-0.737-0.769c-0.048-0.056-0.425-0.519-0.192-0.221c0.233,0.298-0.159-0.232-0.165-0.24
			c-0.197-0.288-0.379-0.588-0.544-0.896c-0.065-0.123-0.125-0.249-0.188-0.373c-0.305-0.606,0.161,0.518-0.05-0.126
			c-0.097-0.296-0.193-0.59-0.264-0.895c-0.035-0.148-0.117-0.354-0.101-0.51c0.014,0.1,0.027,0.2,0.041,0.3
			c-0.014-0.14-0.025-0.279-0.031-0.419c-0.084-1.4-1.175-2.755-2.687-2.687c-1.383,0.062-2.777,1.184-2.687,2.687
			c0.236,3.928,2.469,7.118,5.574,9.394c3.001,2.197,6.776,3.118,10.334,3.966c1.365,0.325,2.975-0.428,3.305-1.876
			C1193.137,1045.771,1192.409,1044.193,1190.947,1043.845L1190.947,1043.845z"/>
	</g>
	<g display="inline">
		<path fill="#DAE3F2" d="M1305.112,1004.776c-0.389-4.161-4.666-8.058-9.031-7.113c-2.4,0.519-5.391,2.146-6.88,0.326
			c4.736-4.422,9.579-8.99,12.25-14.721c2.67-5.729,2.698-12.972-1.703-17.634s-13.768-4.881-17.18,0.497
			c2.705-10.429,2.666-21.453-0.111-31.833c-1.388-5.188-3.592-10.415-7.837-13.992c-4.244-3.577-10.949-5.035-15.85-2.226
			c-2.807,1.609-4.663,4.342-6.019,7.144c-4.594,9.493-4.426,20.314-3.691,30.681c-3.373-4.19-11.161-2.969-14.463,1.31
			c-3.302,4.279-2.998,10.162-1.256,15.152c1.742,4.99,4.733,9.527,6.525,14.502c-2.739-2.727-8.085-1.408-10.331,1.713
			c-2.246,3.122-2.138,7.203-1.451,10.894c1.687,9.06,6.431,17.583,13.391,24.061c-3.27-2.954-9.186-1.671-12.02,1.687
			c-2.834,3.357-3.219,7.976-2.739,12.211c1.859,16.408,13.75,32.096,41.823,30.664c10.937-1.238,21.655-6.986,26.68-16.164
			c5.024-9.177,3.102-21.686-5.638-27.887c3.263-2.879,7.096-5.164,10.251-8.146
			C1302.987,1012.919,1305.502,1008.938,1305.112,1004.776z"/>
		<path fill="#F8F5FF" d="M1265.482,1094.545c0-33.066,0-66.133,0-99.2c0-9.306,0-18.61,0-27.916c0-3.457-5.373-3.463-5.373,0
			c0,33.067,0,66.134,0,99.201c0,9.305,0,18.61,0,27.915C1260.109,1098.003,1265.482,1098.009,1265.482,1094.545L1265.482,1094.545z
			"/>
		<path fill="#F8F5FF" d="M1264.831,1016.82c9.878-3.453,17.704-11.803,20.283-21.983c0.356-1.405-0.458-2.915-1.876-3.305
			c-1.381-0.38-2.947,0.464-3.305,1.876c-1.056,4.167-3.147,8.039-6.005,11.163c-0.732,0.801-1.509,1.561-2.325,2.275
			c-0.928,0.813-1.453,1.216-2.505,1.917c-1.875,1.248-3.811,2.217-5.695,2.875c-1.369,0.479-2.279,1.838-1.876,3.305
			C1261.891,1016.272,1263.455,1017.301,1264.831,1016.82L1264.831,1016.82z"/>
		<path fill="#F8F5FF" d="M1260.73,1037.831c-3.681-0.548-6.364-3.519-8.152-6.68c-1.87-3.305-2.623-6.928-2.335-10.758
			c0.108-1.448-1.313-2.687-2.687-2.687c-1.544,0-2.578,1.233-2.687,2.687c-0.357,4.757,0.819,9.634,3.228,13.746
			c2.387,4.075,6.329,8.147,11.204,8.873c1.434,0.213,2.888-0.358,3.305-1.877
			C1262.955,1039.869,1262.175,1038.046,1260.73,1037.831L1260.73,1037.831z"/>
		<path fill="#F8F5FF" d="M1264.521,984.169c-1.203-0.978-2.348-2.021-3.423-3.139c-0.551-0.573-1.084-1.164-1.598-1.771
			c-0.244-0.288-0.482-0.579-0.717-0.874c-0.104-0.131-0.347-0.451-0.12-0.15c-0.126-0.167-0.251-0.335-0.375-0.504
			c-0.916-1.249-1.754-2.556-2.508-3.908c-0.367-0.659-0.713-1.328-1.04-2.007c-0.181-0.378-0.354-0.759-0.524-1.142
			c-0.08-0.181-0.132-0.311-0.025-0.051c-0.096-0.232-0.189-0.466-0.281-0.699c-0.515-1.303-1.822-2.356-3.305-1.877
			c-1.264,0.409-2.429,1.905-1.876,3.306c2.546,6.449,6.597,12.229,11.994,16.615c1.089,0.885,2.749,1.145,3.799,0
			C1265.421,986.987,1265.686,985.115,1264.521,984.169L1264.521,984.169z"/>
	</g>
	<linearGradient id="SVGID_5_" gradientUnits="userSpaceOnUse" x1="1977.9805" y1="1059.125" x2="2197.9004" y2="1059.125">
		<stop  offset="0" style="stop-color:#AEC9E8"/>
		<stop  offset="0.2148" style="stop-color:#B5CDE9"/>
		<stop  offset="0.5259" style="stop-color:#C8D9EC"/>
		<stop  offset="0.8942" style="stop-color:#E8ECF0"/>
		<stop  offset="1" style="stop-color:#F2F2F2"/>
	</linearGradient>
	<path display="inline" fill="url(#SVGID_5_)" d="M1981.139,1091.359c-3.867-4.193-4.232-11.181-0.824-15.755
		c3.408-4.573,10.208-6.222,15.332-3.715c-1.079-4.379-0.205-9.508,3.227-12.436c3.431-2.928,9.571-2.494,11.712,1.476
		c-1.008-5.019,0.769-10.709,4.978-13.622c4.21-2.913,10.741-2.259,13.727,1.899c0.084-6.015,0.346-12.541,4.172-17.183
		c3.826-4.641,12.61-5.315,15.094,0.162c2.32-5.421,8.116-9.156,14.012-9.029c5.896,0.126,11.525,4.106,13.611,9.622
		c5.298-5.767,13.854-8.313,21.444-6.384c7.589,1.931,13.89,8.257,15.788,15.854c0.387,1.547,0.924,3.471,2.494,3.744
		c0.744,0.13,1.482-0.189,2.206-0.409c4.578-1.386,9.592,1.38,12.319,5.309c2.727,3.929,3.681,8.783,4.571,13.482
		c5.325-4.663,15.346-0.546,15.854,6.514c3.453-2.414,7.922-4.907,11.604-2.86c1.596,0.886,2.678,2.488,4.209,3.479
		c1.532,0.991,4.032,1.028,4.762-0.644c2.303,3.598,3.785,7.717,4.304,11.956c4.236-3.237,10.412-3.688,15.073-1.101
		c4.661,2.589,7.544,8.07,7.034,13.377L1981.139,1091.359z"/>
	<linearGradient id="SVGID_6_" gradientUnits="userSpaceOnUse" x1="2537.2393" y1="1061.166" x2="2757.1592" y2="1061.166">
		<stop  offset="0" style="stop-color:#AEC9E8"/>
		<stop  offset="0.2148" style="stop-color:#B5CDE9"/>
		<stop  offset="0.5259" style="stop-color:#C8D9EC"/>
		<stop  offset="0.8942" style="stop-color:#E8ECF0"/>
		<stop  offset="1" style="stop-color:#F2F2F2"/>
	</linearGradient>
	<path display="inline" fill="url(#SVGID_6_)" d="M2540.397,1093.4c-3.866-4.193-4.232-11.181-0.824-15.755
		s10.208-6.222,15.332-3.716c-1.079-4.379-0.204-9.508,3.227-12.435c3.431-2.928,9.572-2.494,11.712,1.476
		c-1.008-5.019,0.77-10.709,4.979-13.622s10.74-2.26,13.726,1.898c0.084-6.014,0.346-12.541,4.172-17.182
		c3.826-4.642,12.61-5.316,15.095,0.162c2.32-5.422,8.115-9.156,14.011-9.03c5.896,0.127,11.526,4.107,13.611,9.623
		c5.298-5.767,13.854-8.314,21.444-6.384c7.59,1.93,13.89,8.256,15.789,15.854c0.387,1.546,0.923,3.47,2.493,3.744
		c0.745,0.13,1.483-0.19,2.206-0.409c4.578-1.386,9.593,1.379,12.319,5.309c2.727,3.929,3.681,8.783,4.571,13.481
		c5.325-4.662,15.346-0.545,15.854,6.515c3.453-2.414,7.922-4.907,11.605-2.861c1.595,0.887,2.677,2.488,4.209,3.479
		s4.031,1.029,4.761-0.644c2.303,3.598,3.785,7.717,4.305,11.957c4.235-3.238,10.412-3.689,15.072-1.101
		c4.662,2.588,7.544,8.069,7.034,13.377L2540.397,1093.4z"/>
	<g display="inline">
		<path fill="#DAE3F2" d="M2158.901,1048.354c-0.889-7.161-6.936-14.171-14.125-13.559c5.892-5.232,9.445-13.005,9.549-20.884
			c0.062-4.696-1.273-9.743-4.946-12.672c-3.143-2.506-8.231-2.603-11.055-0.001c4.784-6.465,6.554-15.11,4.58-22.919
			c-2.134-8.444-8.576-15.677-16.717-18.774c-4.587-1.746-9.894-2.178-14.32-0.06c-4.692,2.244-7.726,6.992-9.475,11.891
			c-3.303,9.245-2.829,19.354-2.313,29.157c-5.521-1.062-11.425,0.006-16.226,2.935c-1.731,1.057-3.473,2.382-4.081,4.398
			c-0.387,1.283-0.404,2.646-0.388,3.985c0.068,5.551,0.586,11.209,1.861,16.62c0.582,2.468,1.371,4.901,2.467,7.191
			c0.58,1.213,2.727,6.031,4.192,6.26c-4.602-0.718-9.07,2.685-11.03,6.909s-1.946,9.072-1.689,13.723
			c0.422,7.626,1.728,15.897,7.322,21.099c6.042,5.616,14.734,6.076,22.483,7.06c8.67,1.101,17.641,0.885,25.98-1.941
			c10.271-3.479,18.246-10.146,22.93-19.902C2156.939,1062.541,2159.79,1055.52,2158.901,1048.354z"/>
		<path fill="#F8F5FF" d="M2119.97,1094.786c0-20.26,0-40.52,0-60.78c0-4.376-6.802-4.384-6.802,0c0,20.261,0,40.521,0,60.78
			C2113.168,1099.163,2119.97,1099.17,2119.97,1094.786L2119.97,1094.786z"/>
		<path fill="#F8F5FF" d="M2119.674,1073.676c7.521-1.229,14.612-5.071,19.844-10.598c1.225-1.293,1.379-3.544,0-4.81
			c-1.326-1.219-3.503-1.38-4.81,0c-0.58,0.612-1.179,1.206-1.804,1.773c-0.331,0.3-0.668,0.593-1.011,0.879
			c-0.152,0.127-0.308,0.251-0.461,0.376c-0.23,0.188-0.281,0.215-0.017,0.018c-1.396,1.038-2.851,1.982-4.389,2.797
			c-0.746,0.396-1.509,0.752-2.279,1.098c0.3-0.134,0.278-0.112-0.012,0.002c-0.185,0.072-0.369,0.146-0.555,0.217
			c-0.417,0.159-0.838,0.309-1.262,0.45c-1.649,0.551-3.339,0.958-5.054,1.239c-1.761,0.288-2.899,2.564-2.376,4.184
			C2116.107,1073.207,2117.787,1073.984,2119.674,1073.676L2119.674,1073.676z"/>
		<path fill="#F8F5FF" d="M2114.861,1055.631c-0.025,0.005-0.854,0.183-0.32,0.08c0.514-0.099-0.209,0.012-0.323,0.019
			c-0.434,0.022-0.862,0.003-1.295-0.024c-0.591-0.037,0.134-0.004,0.132,0.023c-0.001,0.006-0.573-0.111-0.639-0.127
			c-0.427-0.098-0.847-0.222-1.259-0.367c-0.252-0.09-0.673-0.072-0.047,0.002c-0.147-0.018-0.348-0.159-0.481-0.225
			c-0.398-0.195-0.787-0.41-1.165-0.644c-0.37-0.229-0.772-0.466-1.101-0.752c0.339,0.296,0.237,0.183-0.035-0.051
			c-0.168-0.144-0.332-0.29-0.493-0.44c-0.657-0.615-1.224-1.295-1.816-1.967c-0.343-0.389,0.456,0.633-0.073-0.092
			c-0.139-0.189-0.277-0.38-0.413-0.572c-0.244-0.348-0.48-0.7-0.71-1.057c-1.025-1.594-1.919-3.268-2.81-4.939
			c-0.837-1.572-3.151-2.188-4.653-1.22c-1.598,1.03-2.115,2.971-1.22,4.653c2.009,3.771,4.16,7.733,7.479,10.529
			c3.654,3.078,8.279,4.779,13.052,3.729c1.739-0.383,2.92-2.499,2.375-4.184C2118.453,1056.178,2116.726,1055.22,2114.861,1055.631
			L2114.861,1055.631z"/>
	</g>
	<g display="inline">
		<path fill="#DAE3F2" d="M2635.942,1044.925c-0.888-7.161-6.935-14.171-14.124-13.56c5.891-5.231,9.445-13.005,9.549-20.883
			c0.061-4.697-1.273-9.744-4.946-12.672c-3.144-2.506-8.232-2.603-11.056-0.002c4.785-6.465,6.554-15.109,4.58-22.919
			c-2.134-8.444-8.576-15.677-16.717-18.774c-4.586-1.745-9.894-2.177-14.32-0.06c-4.691,2.245-7.725,6.992-9.475,11.891
			c-3.303,9.246-2.828,19.354-2.313,29.158c-5.521-1.062-11.425,0.006-16.225,2.934c-1.731,1.057-3.474,2.382-4.081,4.399
			c-0.387,1.283-0.405,2.645-0.389,3.984c0.069,5.551,0.586,11.209,1.862,16.62c0.582,2.468,1.37,4.901,2.466,7.191
			c0.581,1.214,2.728,6.031,4.192,6.26c-4.602-0.718-9.07,2.685-11.03,6.909c-1.959,4.225-1.946,9.072-1.688,13.723
			c0.421,7.626,1.728,15.898,7.321,21.099c6.043,5.617,14.734,6.076,22.484,7.06c8.67,1.101,17.64,0.885,25.98-1.941
			c10.271-3.479,18.246-10.146,22.929-19.901C2633.981,1059.11,2636.831,1052.089,2635.942,1044.925z"/>
		<path fill="#F8F5FF" d="M2597.011,1091.356c0-20.261,0-40.521,0-60.78c0-4.377-6.802-4.385-6.802,0c0,20.26,0,40.52,0,60.78
			C2590.209,1095.732,2597.011,1095.74,2597.011,1091.356L2597.011,1091.356z"/>
		<path fill="#F8F5FF" d="M2596.716,1070.246c7.52-1.23,14.611-5.072,19.844-10.599c1.224-1.292,1.379-3.544,0-4.81
			c-1.327-1.218-3.503-1.38-4.81,0c-0.58,0.613-1.18,1.206-1.805,1.773c-0.33,0.3-0.667,0.593-1.01,0.879
			c-0.153,0.127-0.308,0.252-0.462,0.377c-0.229,0.187-0.281,0.214-0.016,0.017c-1.396,1.038-2.852,1.982-4.39,2.798
			c-0.746,0.396-1.509,0.752-2.279,1.098c0.3-0.135,0.279-0.113-0.012,0.001c-0.185,0.073-0.369,0.146-0.555,0.217
			c-0.417,0.159-0.838,0.31-1.261,0.45c-1.649,0.551-3.339,0.959-5.055,1.239c-1.761,0.288-2.898,2.565-2.375,4.184
			C2593.149,1069.777,2594.829,1070.555,2596.716,1070.246L2596.716,1070.246z"/>
		<path fill="#F8F5FF" d="M2591.902,1052.2c-0.025,0.006-0.854,0.184-0.32,0.081c0.515-0.1-0.209,0.012-0.323,0.018
			c-0.434,0.022-0.861,0.003-1.294-0.024c-0.591-0.036,0.134-0.004,0.131,0.023c0,0.006-0.572-0.111-0.639-0.127
			c-0.427-0.098-0.846-0.222-1.258-0.367c-0.252-0.09-0.674-0.072-0.048,0.002c-0.147-0.018-0.348-0.158-0.481-0.224
			c-0.397-0.195-0.787-0.411-1.164-0.645c-0.37-0.229-0.773-0.465-1.101-0.752c0.338,0.297,0.237,0.183-0.036-0.051
			c-0.167-0.144-0.331-0.29-0.492-0.44c-0.657-0.614-1.225-1.294-1.817-1.967c-0.342-0.388,0.456,0.633-0.072-0.092
			c-0.139-0.189-0.278-0.38-0.413-0.572c-0.244-0.347-0.48-0.7-0.71-1.057c-1.026-1.594-1.92-3.268-2.81-4.938
			c-0.838-1.572-3.152-2.188-4.653-1.221c-1.599,1.03-2.116,2.972-1.221,4.653c2.01,3.771,4.161,7.733,7.479,10.529
			c3.654,3.079,8.278,4.779,13.051,3.729c1.74-0.383,2.921-2.499,2.375-4.184C2595.495,1052.747,2593.767,1051.79,2591.902,1052.2
			L2591.902,1052.2z"/>
	</g>
	<linearGradient id="SVGID_7_" gradientUnits="userSpaceOnUse" x1="240.7339" y1="1097.2656" x2="2820.7402" y2="1097.2656">
		<stop  offset="0" style="stop-color:#68D2FF"/>
		<stop  offset="1" style="stop-color:#2287D9"/>
	</linearGradient>
	<polygon display="inline" fill="url(#SVGID_7_)" points="240.741,1101.476 240.734,1097.394 2820.734,1093.056 2820.74,1097.138 	
		"/>
</g>
<g id="Capa_2">
	<g display="none">
		<linearGradient id="SVGID_8_" gradientUnits="userSpaceOnUse" x1="159.5332" y1="693.3086" x2="200.9385" y2="693.3086">
			<stop  offset="0" style="stop-color:#68D2FF"/>
			<stop  offset="1" style="stop-color:#2287D9"/>
		</linearGradient>
		<polygon display="inline" fill="url(#SVGID_8_)" points="159.533,695.04 180.916,683.164 200.938,687.97 198.535,695.04 
			180.235,690.639 159.533,703.454 		"/>
		<linearGradient id="SVGID_9_" gradientUnits="userSpaceOnUse" x1="100.7051" y1="683.1641" x2="135.7969" y2="683.1641">
			<stop  offset="0" style="stop-color:#68D2FF"/>
			<stop  offset="1" style="stop-color:#2287D9"/>
		</linearGradient>
		<polygon display="inline" fill="url(#SVGID_9_)" points="135.797,691.595 121.741,671.578 101.629,667.163 100.705,674.573 
			119.091,678.601 132.125,699.165 		"/>
		<g display="inline">
			<linearGradient id="SVGID_10_" gradientUnits="userSpaceOnUse" x1="109.1221" y1="666.9683" x2="116.4932" y2="666.9683">
				<stop  offset="0" style="stop-color:#68D2FF"/>
				<stop  offset="1" style="stop-color:#2287D9"/>
			</linearGradient>
			<polygon fill="url(#SVGID_10_)" points="115.211,670.154 109.122,669.505 110.646,663.782 116.493,665.338 			"/>
			
				<ellipse transform="matrix(0.9741 0.2261 -0.2261 0.9741 152.8551 -8.3243)" fill="#FFFFFF" cx="112.763" cy="663.05" rx="25.451" ry="1.942"/>
		</g>
		<g display="inline">
			<linearGradient id="SVGID_11_" gradientUnits="userSpaceOnUse" x1="189.9131" y1="683.5" x2="197.3838" y2="683.5">
				<stop  offset="0" style="stop-color:#68D2FF"/>
				<stop  offset="1" style="stop-color:#2287D9"/>
			</linearGradient>
			<polygon fill="url(#SVGID_11_)" points="195.828,687.2 189.913,685.898 191.536,679.8 197.384,681.356 			"/>
			
				<ellipse transform="matrix(0.9741 0.2261 -0.2261 0.9741 158.5694 -26.201)" fill="#FFFFFF" cx="193.654" cy="679.068" rx="25.451" ry="1.942"/>
		</g>
		<path display="inline" fill="#FF7E78" d="M154.52,694.852l-17.188-3.343l0.18-0.923c0.923-4.747,5.519-7.846,10.266-6.923l0,0
			c4.746,0.923,7.846,5.519,6.923,10.266L154.52,694.852z"/>
		
			<rect x="156.053" y="707.466" transform="matrix(0.4101 0.912 -0.912 0.4101 743.102 267.7179)" display="inline" fill="#350FA2" width="17.089" height="1.662"/>
		
			<rect x="144.157" y="701.351" transform="matrix(0.9802 0.198 -0.198 0.9802 142.8736 -14.7115)" display="inline" fill="#350FA2" width="1.662" height="11.195"/>
		
			<rect x="122.701" y="697.52" transform="matrix(0.8514 0.5245 -0.5245 0.8514 387.6815 39.8362)" display="inline" fill="#350FA2" width="1.661" height="13.285"/>
		<linearGradient id="SVGID_12_" gradientUnits="userSpaceOnUse" x1="97.6094" y1="738.9302" x2="178.1494" y2="738.9302">
			<stop  offset="0" style="stop-color:#FFC572"/>
			<stop  offset="1" style="stop-color:#FF4EB3"/>
		</linearGradient>
		<polygon display="inline" fill="url(#SVGID_12_)" points="166.628,775.264 97.609,761.842 109.131,702.597 178.149,716.019 		"/>
		<g display="inline">
			
				<rect x="102.87" y="736.449" transform="matrix(0.9818 0.1898 -0.1898 0.9818 142.7439 -12.7655)" fill="#FFC572" width="70.312" height="4.983"/>
		</g>
		<g display="inline">
			
				<rect x="135.473" y="708.762" transform="matrix(0.9769 0.2136 -0.2136 0.9769 160.9988 -12.4161)" fill="#FFC572" width="4.984" height="60.371"/>
		</g>
		<linearGradient id="SVGID_13_" gradientUnits="userSpaceOnUse" x1="125.708" y1="697.2983" x2="166.2432" y2="697.2983">
			<stop  offset="0" style="stop-color:#68D2FF"/>
			<stop  offset="1" style="stop-color:#2287D9"/>
		</linearGradient>
		<polygon display="inline" fill="url(#SVGID_13_)" points="164.408,705.778 125.708,698.252 127.543,688.818 166.243,696.344 		"/>
	</g>
	<g display="none">
		
			<linearGradient id="SVGID_14_" gradientUnits="userSpaceOnUse" x1="401.9136" y1="953.9932" x2="407.0811" y2="953.9932" gradientTransform="matrix(0.9907 0.136 -0.136 0.9907 88.3393 -178.5801)">
			<stop  offset="0" style="stop-color:#68D2FF"/>
			<stop  offset="1" style="stop-color:#2287D9"/>
		</linearGradient>
		<polygon display="inline" fill="url(#SVGID_14_)" points="360.933,828.89 358.702,829.036 357.731,814.215 359.961,814.068 		"/>
		
			<linearGradient id="SVGID_15_" gradientUnits="userSpaceOnUse" x1="245.4517" y1="988.0977" x2="250.1206" y2="988.0977" gradientTransform="matrix(0.9907 0.136 -0.136 0.9907 88.3393 -178.5801)">
			<stop  offset="0" style="stop-color:#68D2FF"/>
			<stop  offset="1" style="stop-color:#2287D9"/>
		</linearGradient>
		<polygon display="inline" fill="url(#SVGID_15_)" points="198.551,837.684 196.726,836.634 200.329,830.371 202.154,831.422 		"/>
		
			<linearGradient id="SVGID_16_" gradientUnits="userSpaceOnUse" x1="249.7329" y1="987.0977" x2="255.8354" y2="987.0977" gradientTransform="matrix(0.9907 0.136 -0.136 0.9907 88.3393 -178.5801)">
			<stop  offset="0" style="stop-color:#68D2FF"/>
			<stop  offset="1" style="stop-color:#2287D9"/>
		</linearGradient>
		<polygon display="inline" fill="url(#SVGID_16_)" points="205.43,837.369 207.251,836.313 203.625,830.063 201.804,831.119 		"/>
		
			<linearGradient id="SVGID_17_" gradientUnits="userSpaceOnUse" x1="216.2144" y1="980.2715" x2="282.9814" y2="980.2715" gradientTransform="matrix(0.9907 0.136 -0.136 0.9907 88.3393 -178.5801)">
			<stop  offset="0" style="stop-color:#68D2FF"/>
			<stop  offset="1" style="stop-color:#2287D9"/>
		</linearGradient>
		<path display="inline" fill="url(#SVGID_17_)" d="M228.2,830.545l-50.154,2.347c-4.839,0.227-8.946-3.513-9.172-8.353l0,0
			l67.678-3.166l0,0C236.779,826.213,233.04,830.318,228.2,830.545z"/>
		
			<linearGradient id="SVGID_18_" gradientUnits="userSpaceOnUse" x1="45.0161" y1="953.0674" x2="128.7397" y2="953.0674" gradientTransform="matrix(0.9907 0.136 -0.136 0.9907 88.3393 -178.5801)">
			<stop  offset="0" style="stop-color:#68D2FF"/>
			<stop  offset="1" style="stop-color:#2287D9"/>
		</linearGradient>
		<polygon display="inline" fill="url(#SVGID_18_)" points="85.253,790.498 45.442,816.336 8.465,734.261 30.688,736.695 		"/>
		
			<linearGradient id="SVGID_19_" gradientUnits="userSpaceOnUse" x1="276.4106" y1="997.4336" x2="230.2614" y2="866.6772" gradientTransform="matrix(0.9907 0.136 -0.136 0.9907 88.3393 -178.5801)">
			<stop  offset="0" style="stop-color:#68D2FF"/>
			<stop  offset="1" style="stop-color:#2287D9"/>
		</linearGradient>
		<path display="inline" fill="url(#SVGID_19_)" d="M384.355,814.696c-7.077,0.401-14.153,0.804-21.229,1.206
			c-17.596,0.998-35.192,1.998-52.788,2.997c-22.694,1.288-45.388,2.577-68.082,3.866c-22.37,1.27-44.741,2.54-67.111,3.811
			c-11.333,0.643-22.394,2.295-33.728,2.938c-6.882,0.391-13.981,0.446-20.866,0.807c-6.884,0.359-13.057-0.592-19.796-1.944
			c-15.799-3.172-31.308-7.569-46.899-11.456c-11.236-2.761-22.472-5.521-33.708-8.281l-0.524-9.224l69.766-9.151
			c12.774-0.726,25.548-1.451,38.322-2.176c29.208-1.659,58.416-3.317,87.623-4.977c31.969-1.814,63.938-3.63,95.906-5.445
			c21.291-1.209,42.583-2.391,63.869-3.686c14.975-0.91,33.231,9.276,39.524,23.162c1.84,4.061-9.637,10.166-12.645,11.747
			C396.471,811.791,390.456,813.521,384.355,814.696z"/>
		
			<linearGradient id="SVGID_20_" gradientUnits="userSpaceOnUse" x1="62.0737" y1="978.3887" x2="118.1509" y2="978.3887" gradientTransform="matrix(0.9907 0.136 -0.136 0.9907 88.3393 -178.5801)">
			<stop  offset="0" style="stop-color:#68D2FF"/>
			<stop  offset="1" style="stop-color:#2287D9"/>
		</linearGradient>
		<polygon display="inline" fill="url(#SVGID_20_)" points="72.854,802.97 38.574,807.643 17.037,797.246 25.135,794.801 		"/>
		<g display="inline">
			<g>
				
					<linearGradient id="SVGID_21_" gradientUnits="userSpaceOnUse" x1="290.5625" y1="975.6387" x2="316.0493" y2="975.6387" gradientTransform="matrix(0.9907 0.136 -0.136 0.9907 88.3393 -178.5801)">
					<stop  offset="0" style="stop-color:#68D2FF"/>
					<stop  offset="1" style="stop-color:#2287D9"/>
				</linearGradient>
				<path fill="url(#SVGID_21_)" d="M264.691,820.767c-2.882-0.335-6.029-0.442-9.333-0.3c-4.041,0.174-7.816,0.968-11.118,2.044
					c-0.549,2.721-0.924,7.54,0.572,14.631c3.397,0.802,7.25,1.278,11.313,1.104c3.304-0.143,6.43-0.521,9.272-1.103
					c0.907-0.183,1.769-0.377,2.598-0.586l-0.666-15.431C266.485,820.99,265.61,820.87,264.691,820.767z"/>
				
					<linearGradient id="SVGID_22_" gradientUnits="userSpaceOnUse" x1="279.748" y1="977.7227" x2="293.6064" y2="977.7227" gradientTransform="matrix(0.9907 0.136 -0.136 0.9907 88.3393 -178.5801)">
					<stop  offset="0" style="stop-color:#68D2FF"/>
					<stop  offset="1" style="stop-color:#2287D9"/>
				</linearGradient>
				<path fill="url(#SVGID_22_)" d="M244.692,822.491c-7.51,2.447-12.543,6.368-12.478,7.879c0.063,1.468,5.387,4.943,13.05,6.752
					C243.769,830.031,244.144,825.212,244.692,822.491z"/>
			</g>
			
				<linearGradient id="SVGID_23_" gradientUnits="userSpaceOnUse" x1="310.833" y1="974.1113" x2="316.2549" y2="974.1113" gradientTransform="matrix(0.9907 0.136 -0.136 0.9907 88.3393 -178.5801)">
				<stop  offset="0" style="stop-color:#68D2FF"/>
				<stop  offset="1" style="stop-color:#2287D9"/>
			</linearGradient>
			<polygon fill="url(#SVGID_23_)" points="265.605,837.133 264.899,820.758 267.538,821.117 268.204,836.549 			"/>
		</g>
		
			<linearGradient id="SVGID_24_" gradientUnits="userSpaceOnUse" x1="294.1494" y1="970.4961" x2="222.5299" y2="963.7668" gradientTransform="matrix(0.9907 0.136 -0.136 0.9907 88.3393 -178.5801)">
			<stop  offset="0" style="stop-color:#68D2FF"/>
			<stop  offset="1" style="stop-color:#2287D9"/>
		</linearGradient>
		<polygon display="inline" fill="url(#SVGID_24_)" points="263.2,813.581 247.009,811.357 149.275,809.389 167.943,817.125 
			211.644,821.583 265.53,816.165 		"/>
		<g display="inline">
			
				<linearGradient id="SVGID_25_" gradientUnits="userSpaceOnUse" x1="253.3584" y1="982.4336" x2="256.0826" y2="991.087" gradientTransform="matrix(0.9907 0.136 -0.136 0.9907 88.3393 -178.5801)">
				<stop  offset="0" style="stop-color:#68D2FF"/>
				<stop  offset="1" style="stop-color:#2287D9"/>
			</linearGradient>
			<circle fill="url(#SVGID_25_)" cx="207.352" cy="838.702" r="4.556"/>
			
				<linearGradient id="SVGID_26_" gradientUnits="userSpaceOnUse" x1="253.3589" y1="982.4355" x2="256.0826" y2="991.0875" gradientTransform="matrix(0.9907 0.136 -0.136 0.9907 88.3393 -178.5801)">
				<stop  offset="0" style="stop-color:#68D2FF"/>
				<stop  offset="1" style="stop-color:#2287D9"/>
			</linearGradient>
			<circle fill="url(#SVGID_26_)" cx="207.352" cy="838.702" r="2.884"/>
		</g>
		<g display="inline">
			
				<linearGradient id="SVGID_27_" gradientUnits="userSpaceOnUse" x1="406.4683" y1="954.0449" x2="406.4683" y2="957.8903" gradientTransform="matrix(0.9907 0.136 -0.136 0.9907 88.3393 -178.5801)">
				<stop  offset="0" style="stop-color:#68D2FF"/>
				<stop  offset="1" style="stop-color:#2287D9"/>
			</linearGradient>
			<circle fill="url(#SVGID_27_)" cx="360.303" cy="828.973" r="4.556"/>
			
				<linearGradient id="SVGID_28_" gradientUnits="userSpaceOnUse" x1="406.4683" y1="954.0439" x2="406.4683" y2="957.8896" gradientTransform="matrix(0.9907 0.136 -0.136 0.9907 88.3393 -178.5801)">
				<stop  offset="0" style="stop-color:#68D2FF"/>
				<stop  offset="1" style="stop-color:#2287D9"/>
			</linearGradient>
			<circle fill="url(#SVGID_28_)" cx="360.303" cy="828.973" r="2.884"/>
		</g>
		<g display="inline">
			
				<linearGradient id="SVGID_29_" gradientUnits="userSpaceOnUse" x1="243.0991" y1="985.666" x2="245.8227" y2="994.3175" gradientTransform="matrix(0.9907 0.136 -0.136 0.9907 88.3393 -178.5801)">
				<stop  offset="0" style="stop-color:#68D2FF"/>
				<stop  offset="1" style="stop-color:#2287D9"/>
			</linearGradient>
			<circle fill="url(#SVGID_29_)" cx="196.617" cy="839.735" r="4.556"/>
			
				<linearGradient id="SVGID_30_" gradientUnits="userSpaceOnUse" x1="243.0986" y1="985.6641" x2="245.8229" y2="994.3175" gradientTransform="matrix(0.9907 0.136 -0.136 0.9907 88.3393 -178.5801)">
				<stop  offset="0" style="stop-color:#68D2FF"/>
				<stop  offset="1" style="stop-color:#2287D9"/>
			</linearGradient>
			<circle fill="url(#SVGID_30_)" cx="196.617" cy="839.734" r="2.884"/>
		</g>
		<g display="inline">
			<path fill="#FFFFFF" d="M382.256,784.505l-0.736,5.356c0,0,2.113,0.439,6.369,0.201l-0.862-5.517
				C385.636,784.587,384.056,784.583,382.256,784.505z"/>
			<path fill="#FFFFFF" d="M402.755,786.647l-5.066-3.519c0,0-0.676,0.258-2.135,0.523l2.069,5.23
				c1.51-0.264,3.133-0.588,4.902-1.008C403.098,787.74,403.239,786.984,402.755,786.647z"/>
			<path fill="#FFFFFF" d="M388.668,784.388l0.862,5.516c1.914-0.107,4.263-0.355,7.057-0.842l-2.069-5.229
				C393.222,784.068,391.3,784.311,388.668,784.388z"/>
		</g>
		<g display="inline">
			<path fill="#FFFFFF" d="M328.929,793.173L328.929,793.173c-1.06,0.069-1.975-0.733-2.044-1.792l-0.11-1.68
				c-0.069-1.06,0.733-1.975,1.793-2.044l0,0c1.059-0.069,1.975,0.733,2.044,1.793l0.11,1.679
				C330.791,792.188,329.988,793.104,328.929,793.173z"/>
			<path fill="#FFFFFF" d="M318.719,793.842L318.719,793.842c-1.06,0.069-1.975-0.733-2.044-1.793l-0.11-1.678
				c-0.069-1.061,0.733-1.976,1.793-2.045l0,0c1.06-0.069,1.975,0.733,2.044,1.793l0.11,1.679
				C320.581,792.857,319.779,793.772,318.719,793.842z"/>
			<path fill="#FFFFFF" d="M308.51,794.511L308.51,794.511c-1.06,0.069-1.975-0.733-2.044-1.792l-0.11-1.68
				c-0.069-1.059,0.733-1.975,1.792-2.044l0,0c1.06-0.069,1.975,0.733,2.044,1.793l0.11,1.679
				C310.372,793.526,309.569,794.441,308.51,794.511z"/>
			<path fill="#FFFFFF" d="M298.3,795.18L298.3,795.18c-1.06,0.069-1.975-0.732-2.044-1.793l-0.11-1.678
				c-0.069-1.061,0.733-1.976,1.792-2.045l0,0c1.06-0.069,1.975,0.733,2.044,1.793l0.11,1.679
				C300.162,794.195,299.36,795.11,298.3,795.18z"/>
			<path fill="#FFFFFF" d="M288.09,795.849L288.09,795.849c-1.059,0.069-1.975-0.733-2.044-1.792l-0.11-1.68
				c-0.069-1.059,0.733-1.975,1.792-2.044l0,0c1.06-0.069,1.975,0.733,2.044,1.793l0.11,1.679
				C289.953,794.864,289.15,795.779,288.09,795.849z"/>
			<path fill="#FFFFFF" d="M277.881,796.518L277.881,796.518c-1.059,0.069-1.975-0.732-2.044-1.793l-0.11-1.678
				c-0.069-1.061,0.733-1.976,1.792-2.045l0,0c1.06-0.069,1.975,0.733,2.044,1.793l0.11,1.679
				C279.743,795.533,278.941,796.448,277.881,796.518z"/>
			<path fill="#FFFFFF" d="M267.671,797.187L267.671,797.187c-1.059,0.069-1.975-0.733-2.044-1.792l-0.11-1.68
				c-0.07-1.059,0.733-1.975,1.792-2.044l0,0c1.06-0.069,1.975,0.733,2.044,1.793l0.11,1.679
				C269.534,796.202,268.731,797.117,267.671,797.187z"/>
			<path fill="#FFFFFF" d="M257.462,797.855L257.462,797.855c-1.06,0.069-1.975-0.732-2.044-1.793l-0.11-1.678
				c-0.07-1.061,0.733-1.976,1.792-2.045l0,0c1.06-0.069,1.975,0.733,2.044,1.793l0.11,1.679
				C259.324,796.871,258.521,797.786,257.462,797.855z"/>
			<path fill="#FFFFFF" d="M247.252,798.524L247.252,798.524c-1.06,0.069-1.975-0.733-2.044-1.792l-0.11-1.68
				c-0.069-1.059,0.733-1.975,1.793-2.044l0,0c1.06-0.069,1.975,0.733,2.044,1.793l0.11,1.679
				C249.115,797.54,248.312,798.455,247.252,798.524z"/>
			<path fill="#FFFFFF" d="M237.043,799.193L237.043,799.193c-1.06,0.07-1.975-0.732-2.044-1.793l-0.11-1.678
				c-0.07-1.061,0.733-1.976,1.792-2.045l0,0c1.06-0.069,1.975,0.733,2.044,1.793l0.11,1.679
				C238.905,798.209,238.103,799.124,237.043,799.193z"/>
			<path fill="#FFFFFF" d="M226.833,799.862L226.833,799.862c-1.06,0.069-1.975-0.733-2.044-1.792l-0.11-1.68
				c-0.07-1.059,0.733-1.975,1.792-2.044l0,0c1.06-0.069,1.975,0.733,2.044,1.793l0.11,1.679
				C228.696,798.878,227.893,799.793,226.833,799.862z"/>
			<path fill="#FFFFFF" d="M216.624,800.531L216.624,800.531c-1.06,0.07-1.975-0.732-2.044-1.793l-0.11-1.678
				c-0.07-1.061,0.733-1.976,1.792-2.045l0,0c1.06-0.069,1.975,0.733,2.044,1.793l0.11,1.679
				C218.486,799.547,217.684,800.462,216.624,800.531z"/>
			<path fill="#FFFFFF" d="M206.415,801.2L206.415,801.2c-1.06,0.069-1.975-0.733-2.044-1.792l-0.11-1.68
				c-0.069-1.059,0.733-1.975,1.793-2.044l0,0c1.06-0.069,1.975,0.733,2.044,1.793l0.11,1.679
				C208.277,800.216,207.474,801.131,206.415,801.2z"/>
			<path fill="#FFFFFF" d="M196.205,801.869L196.205,801.869c-1.06,0.07-1.975-0.732-2.044-1.793l-0.11-1.678
				c-0.069-1.061,0.733-1.976,1.793-2.045l0,0c1.06-0.069,1.975,0.733,2.044,1.793l0.11,1.679
				C198.067,800.885,197.265,801.8,196.205,801.869z"/>
			<path fill="#FFFFFF" d="M185.996,802.538L185.996,802.538c-1.06,0.069-1.975-0.733-2.044-1.792l-0.11-1.68
				c-0.069-1.059,0.733-1.975,1.793-2.044l0,0c1.06-0.069,1.975,0.733,2.044,1.793l0.11,1.679
				C187.858,801.554,187.055,802.469,185.996,802.538z"/>
			<path fill="#FFFFFF" d="M175.786,803.207L175.786,803.207c-1.06,0.07-1.975-0.732-2.044-1.793l-0.11-1.678
				c-0.069-1.061,0.733-1.976,1.793-2.045l0,0c1.06-0.069,1.975,0.733,2.044,1.793l0.11,1.679
				C177.648,802.223,176.846,803.138,175.786,803.207z"/>
			<path fill="#FFFFFF" d="M165.577,803.876L165.577,803.876c-1.06,0.069-1.975-0.733-2.044-1.792l-0.11-1.68
				c-0.069-1.059,0.733-1.975,1.793-2.044l0,0c1.06-0.069,1.975,0.733,2.044,1.793l0.11,1.679
				C167.439,802.892,166.636,803.807,165.577,803.876z"/>
			<path fill="#FFFFFF" d="M155.367,804.545L155.367,804.545c-1.06,0.07-1.975-0.732-2.044-1.793l-0.11-1.678
				c-0.069-1.061,0.733-1.976,1.793-2.045l0,0c1.06-0.069,1.975,0.733,2.044,1.793l0.11,1.679
				C157.229,803.561,156.427,804.476,155.367,804.545z"/>
			<path fill="#FFFFFF" d="M145.158,805.214L145.158,805.214c-1.06,0.069-1.975-0.733-2.044-1.792l-0.11-1.68
				c-0.069-1.059,0.733-1.975,1.793-2.044l0,0c1.06-0.069,1.975,0.733,2.044,1.793l0.11,1.679
				C147.02,804.229,146.217,805.145,145.158,805.214z"/>
		</g>
	</g>
	<g display="none">
		
			<rect x="142.142" y="670.899" transform="matrix(0.1405 0.9901 -0.9901 0.1405 799.2328 422.4897)" display="inline" fill="#350FA2" width="28.266" height="1.36"/>
		
			<rect x="136.916" y="657.446" transform="matrix(0.99 0.1407 -0.1407 0.99 95.8722 -12.6798)" display="inline" fill="#350FA2" width="1.36" height="28.266"/>
		<rect x="145.72" y="657.586" display="inline" fill="#350FA2" width="1.36" height="27.985"/>
		<linearGradient id="SVGID_31_" gradientUnits="userSpaceOnUse" x1="127.8345" y1="693.1143" x2="164.3462" y2="693.1143">
			<stop  offset="0" style="stop-color:#FFC572"/>
			<stop  offset="1" style="stop-color:#FF4EB3"/>
		</linearGradient>
		<rect x="127.834" y="681.855" display="inline" fill="url(#SVGID_31_)" width="36.512" height="22.519"/>
		<g display="inline">
			<rect x="144.359" y="681.855" fill="#FFC572" width="4.081" height="22.519"/>
		</g>
		<g display="inline">
			<rect x="127.834" y="691.074" fill="#FFC572" width="36.512" height="4.081"/>
		</g>
		<g display="inline">
			<defs>
				<path id="XMLID_51_" d="M189.532,600.334c0-23.522-19.381-42.59-43.289-42.59c-23.908,0-43.29,19.068-43.29,42.59
					c0,3.101,0.346,6.122,0.991,9.058c1.526,2.685,1.86,6.485,3.27,9.37c1.519,3.11,3.423,6.03,5.648,8.681
					c7.748,9.228,15.292,17.734,21.823,27.957c0,0,23.601,0,23.612,0c1.503,0,7.001-9.64,8.04-11.163
					C176.093,629.921,189.532,619.109,189.532,600.334z"/>
			</defs>
			<linearGradient id="XMLID_2_" gradientUnits="userSpaceOnUse" x1="102.9536" y1="606.5723" x2="189.5322" y2="606.5723">
				<stop  offset="0" style="stop-color:#68D2FF"/>
				<stop  offset="1" style="stop-color:#2287D9"/>
			</linearGradient>
			<use xlink:href="#XMLID_51_"  overflow="visible" fill="url(#XMLID_2_)"/>
			<clipPath id="XMLID_3_">
				<use xlink:href="#XMLID_51_"  overflow="visible"/>
			</clipPath>
			<path clip-path="url(#XMLID_3_)" fill="#F8F5FF" d="M137.186,551.932c-13.231,8.013-19.559,23.385-21.711,38.112
				c-1.192,8.155-0.628,16.319,1.594,24.256c2.165,7.731,5.657,15.028,9.428,22.089c4.326,8.102,9.066,15.986,12.966,24.31
				c0.928,1.98,3.861,0.256,2.937-1.716c-6.592-14.071-15.814-26.957-20.854-41.74c-2.505-7.347-3.784-15.03-3.182-22.797
				c0.556-7.178,2.333-14.534,5.236-21.125c3.287-7.464,8.251-14.181,15.303-18.452
				C140.772,553.736,139.064,550.794,137.186,551.932L137.186,551.932z"/>
			<path clip-path="url(#XMLID_3_)" fill="#F8F5FF" d="M144.622,545.225c-7.254,12.952-11.747,27.673-13.243,42.428
				c-0.737,7.269-0.611,14.566,0.907,21.729c1.584,7.476,4.312,14.636,6.571,21.919c2.447,7.889,4.447,16.191,3.224,24.492
				c-0.135,0.916,0.229,1.816,1.188,2.092c0.799,0.229,1.958-0.28,2.092-1.188c2.23-15.134-4.715-29.118-8.605-43.352
				c-1.951-7.139-2.713-14.26-2.296-21.649c0.417-7.393,1.775-14.72,3.774-21.844c2.232-7.958,5.283-15.696,9.325-22.912
				C148.629,545.03,145.693,543.313,144.622,545.225L144.622,545.225z"/>
			<path clip-path="url(#XMLID_3_)" fill="#F8F5FF" d="M141.962,558.602c3.775,6.181,7.787,12.366,10.566,19.08
				c2.582,6.235,3.716,12.828,3.967,19.548c0.236,6.353-0.124,12.731-0.674,19.06c-0.609,7.012-1.512,14.007-2.87,20.915
				c-1.301,6.617-2.844,13.591-6.179,19.523c-1.074,1.91,1.863,3.626,2.937,1.716c3.011-5.355,4.624-11.5,5.926-17.461
				c1.571-7.192,2.592-14.51,3.32-21.832c1.323-13.308,2.308-27.584-2.366-40.366c-2.851-7.795-7.386-14.854-11.69-21.901
				C143.76,555.021,140.817,556.728,141.962,558.602L141.962,558.602z"/>
			<path clip-path="url(#XMLID_3_)" fill="#F8F5FF" d="M145.232,552.799c11.822,6.724,23.051,17.048,27.983,30.03
				c2.662,7.006,3.247,14.96,2.293,22.354c-1.124,8.711-4.106,17.415-8.188,25.167c-4.716,8.959-10.725,17.141-16.176,25.649
				c-1.184,1.848,1.758,3.556,2.937,1.717c5.052-7.886,10.57-15.485,15.115-23.687c4.451-8.031,7.723-16.835,9.279-25.901
				c1.396-8.126,1.142-16.854-1.459-24.732c-1.914-5.796-5.168-11.078-8.959-15.826c-5.769-7.225-13.09-13.148-21.108-17.708
				C145.043,548.779,143.328,551.716,145.232,552.799L145.232,552.799z"/>
		</g>
		<linearGradient id="SVGID_32_" gradientUnits="userSpaceOnUse" x1="134.5391" y1="657.5869" x2="158.2612" y2="657.5869">
			<stop  offset="0" style="stop-color:#68D2FF"/>
			<stop  offset="1" style="stop-color:#2287D9"/>
		</linearGradient>
		<rect x="134.539" y="655.4" display="inline" fill="url(#SVGID_32_)" width="23.722" height="4.373"/>
	</g>
	<g display="none">
		<g display="inline">
			<rect x="21.147" y="844.958" fill="#B1C9FD" width="373.746" height="186.44"/>
			<rect x="25.809" y="844.958" fill="#FFFFFF" width="2.659" height="186.44"/>
			<rect x="33.349" y="844.958" fill="#FFFFFF" width="2.659" height="186.44"/>
			<rect x="40.889" y="844.958" fill="#FFFFFF" width="2.659" height="186.44"/>
			<rect x="48.429" y="844.958" fill="#FFFFFF" width="2.659" height="186.44"/>
			<rect x="55.969" y="844.958" fill="#FFFFFF" width="2.659" height="186.44"/>
			<rect x="63.509" y="844.958" fill="#FFFFFF" width="2.659" height="186.44"/>
			<rect x="71.049" y="844.958" fill="#FFFFFF" width="2.659" height="186.44"/>
			<rect x="78.589" y="844.958" fill="#FFFFFF" width="2.658" height="186.44"/>
			<rect x="86.129" y="844.958" fill="#FFFFFF" width="2.658" height="186.44"/>
			<rect x="93.669" y="844.958" fill="#FFFFFF" width="2.658" height="186.44"/>
			<rect x="101.209" y="844.958" fill="#FFFFFF" width="2.658" height="186.44"/>
			<rect x="108.749" y="844.958" fill="#FFFFFF" width="2.658" height="186.44"/>
			<rect x="116.288" y="844.958" fill="#FFFFFF" width="2.659" height="186.44"/>
			<rect x="123.828" y="844.958" fill="#FFFFFF" width="2.658" height="186.44"/>
			<rect x="131.368" y="844.958" fill="#FFFFFF" width="2.658" height="186.44"/>
			<rect x="138.908" y="844.958" fill="#FFFFFF" width="2.658" height="186.44"/>
			<rect x="146.448" y="844.958" fill="#FFFFFF" width="2.658" height="186.44"/>
			<rect x="153.988" y="844.958" fill="#FFFFFF" width="2.658" height="186.44"/>
			<rect x="161.527" y="844.958" fill="#FFFFFF" width="2.659" height="186.44"/>
			<rect x="169.067" y="844.958" fill="#FFFFFF" width="2.659" height="186.44"/>
			<rect x="176.607" y="844.958" fill="#FFFFFF" width="2.659" height="186.44"/>
			<rect x="184.147" y="844.958" fill="#FFFFFF" width="2.659" height="186.44"/>
			<rect x="191.688" y="844.958" fill="#FFFFFF" width="2.659" height="186.44"/>
			<rect x="199.228" y="844.958" fill="#FFFFFF" width="2.659" height="186.44"/>
			<rect x="206.768" y="844.958" fill="#FFFFFF" width="2.658" height="186.44"/>
			<rect x="214.308" y="844.958" fill="#FFFFFF" width="2.658" height="186.44"/>
			<rect x="221.848" y="844.958" fill="#FFFFFF" width="2.658" height="186.44"/>
			<rect x="229.388" y="844.958" fill="#FFFFFF" width="2.658" height="186.44"/>
			<rect x="236.928" y="844.958" fill="#FFFFFF" width="2.658" height="186.44"/>
			<rect x="244.467" y="844.958" fill="#FFFFFF" width="2.659" height="186.44"/>
			<rect x="252.008" y="844.958" fill="#FFFFFF" width="2.658" height="186.44"/>
			<rect x="259.547" y="844.958" fill="#FFFFFF" width="2.659" height="186.44"/>
			<rect x="267.087" y="844.958" fill="#FFFFFF" width="2.659" height="186.44"/>
			<rect x="274.627" y="844.958" fill="#FFFFFF" width="2.659" height="186.44"/>
			<rect x="282.167" y="844.958" fill="#FFFFFF" width="2.659" height="186.44"/>
			<rect x="289.707" y="844.958" fill="#FFFFFF" width="2.659" height="186.44"/>
			<rect x="297.247" y="844.958" fill="#FFFFFF" width="2.658" height="186.44"/>
			<rect x="304.787" y="844.958" fill="#FFFFFF" width="2.658" height="186.44"/>
			<rect x="312.327" y="844.958" fill="#FFFFFF" width="2.658" height="186.44"/>
			<rect x="319.867" y="844.958" fill="#FFFFFF" width="2.658" height="186.44"/>
			<rect x="327.407" y="844.958" fill="#FFFFFF" width="2.658" height="186.44"/>
			<rect x="334.947" y="844.958" fill="#FFFFFF" width="2.658" height="186.44"/>
			<rect x="342.486" y="844.958" fill="#FFFFFF" width="2.659" height="186.44"/>
			<rect x="350.026" y="844.958" fill="#FFFFFF" width="2.659" height="186.44"/>
			<rect x="357.566" y="844.958" fill="#FFFFFF" width="2.659" height="186.44"/>
			<rect x="365.106" y="844.958" fill="#FFFFFF" width="2.659" height="186.44"/>
			<rect x="372.646" y="844.958" fill="#FFFFFF" width="2.659" height="186.44"/>
			<rect x="380.187" y="844.958" fill="#FFFFFF" width="2.659" height="186.44"/>
			<rect x="387.727" y="844.958" fill="#FFFFFF" width="2.658" height="186.44"/>
			<rect x="19.295" y="844.958" fill="none" width="373.746" height="186.44"/>
		</g>
		<g display="inline">
			<g>
				<path fill="#350FA2" d="M394.893,1086.527L394.893,1086.527v-21.135h6.559v14.576
					C401.451,1083.591,398.515,1086.527,394.893,1086.527z"/>
				<g>
					<linearGradient id="SVGID_33_" gradientUnits="userSpaceOnUse" x1="21.1787" y1="1046.7402" x2="394.8906" y2="1046.7402">
						<stop  offset="0" style="stop-color:#68D2FF"/>
						<stop  offset="1" style="stop-color:#2287D9"/>
					</linearGradient>
					<path fill="url(#SVGID_33_)" d="M394.891,1031.436v30.608H207.878c-1.115-6.802-4.366-12.883-9.032-17.535
						c-5.85-5.863-13.944-9.481-22.882-9.481c-16.039,0-29.357,11.686-31.901,27.017H21.179v-30.608H394.891z"/>
					<linearGradient id="SVGID_34_" gradientUnits="userSpaceOnUse" x1="207.8779" y1="1065.833" x2="394.8906" y2="1065.833">
						<stop  offset="0" style="stop-color:#68D2FF"/>
						<stop  offset="1" style="stop-color:#2287D9"/>
					</linearGradient>
					<path fill="url(#SVGID_34_)" d="M394.891,1062.044v7.578H208.327v-2.231c0-1.823-0.149-3.604-0.449-5.347H394.891z"/>
					<linearGradient id="SVGID_35_" gradientUnits="userSpaceOnUse" x1="394.8926" y1="992.3691" x2="510.3311" y2="992.3691">
						<stop  offset="0" style="stop-color:#68D2FF"/>
						<stop  offset="1" style="stop-color:#2287D9"/>
					</linearGradient>
					<path fill="url(#SVGID_35_)" d="M473.018,926.779l-78.125-8.162v107.275v40.229h6.413v-0.291
						c0-17.227,13.965-31.191,31.191-31.191h0.001c17.227,0,31.191,13.965,31.191,31.191v0.291h46.642v-81.04L473.018,926.779z"/>
					<linearGradient id="SVGID_36_" gradientUnits="userSpaceOnUse" x1="503.918" y1="1023.998" x2="510.3311" y2="1023.998">
						<stop  offset="0" style="stop-color:#FFC572"/>
						<stop  offset="1" style="stop-color:#FF4EB3"/>
					</linearGradient>
					<rect x="503.918" y="1016.564" fill="url(#SVGID_36_)" width="6.413" height="14.867"/>
					<linearGradient id="SVGID_37_" gradientUnits="userSpaceOnUse" x1="457.7393" y1="1016.6299" x2="456.4274" y2="953.6627">
						<stop  offset="0" style="stop-color:#D2DFEF"/>
						<stop  offset="0.3567" style="stop-color:#D9E3F0"/>
						<stop  offset="0.8722" style="stop-color:#ECEFF1"/>
						<stop  offset="1" style="stop-color:#F2F2F2"/>
					</linearGradient>
					<path fill="url(#SVGID_37_)" d="M413.258,960.531v-23.348c0-3.214,2.8-5.712,5.993-5.348l43.065,4.915
						c2.908,0.332,5.529,1.91,7.184,4.326l30.92,45.171h-35.856l-46.371-18.443C415.213,966.619,413.258,963.737,413.258,960.531z"
						/>
					<linearGradient id="SVGID_38_" gradientUnits="userSpaceOnUse" x1="411.582" y1="988.4707" x2="432.5703" y2="988.4707">
						<stop  offset="0" style="stop-color:#FFC572"/>
						<stop  offset="1" style="stop-color:#FF4EB3"/>
					</linearGradient>
					<rect x="411.582" y="987.268" fill="url(#SVGID_38_)" width="20.988" height="2.405"/>
					<polygon fill="#350FA2" points="464.078,1028.614 394.747,1028.614 394.747,1027.253 462.717,1027.253 462.717,986.247 
						464.078,986.247 					"/>
					
						<rect x="468.981" y="925.859" transform="matrix(0.8603 0.5098 -0.5098 0.8603 541.0217 -109.1619)" fill="#350FA2" width="1.36" height="13.156"/>
				</g>
				<linearGradient id="SVGID_39_" gradientUnits="userSpaceOnUse" x1="21.1787" y1="1065.833" x2="144.0625" y2="1065.833">
					<stop  offset="0" style="stop-color:#68D2FF"/>
					<stop  offset="1" style="stop-color:#2287D9"/>
				</linearGradient>
				<path fill="url(#SVGID_39_)" d="M21.179,1062.044h122.884c-0.299,1.742-0.449,3.523-0.449,5.347v2.231H21.179V1062.044z"/>
			</g>
			<g>
				<circle fill="#350FA2" cx="175.604" cy="1066.121" r="26.163"/>
				<linearGradient id="SVGID_40_" gradientUnits="userSpaceOnUse" x1="161.9746" y1="1066.1211" x2="189.2314" y2="1066.1211">
					<stop  offset="0" style="stop-color:#60A1E3"/>
					<stop  offset="1" style="stop-color:#5D5FD0"/>
				</linearGradient>
				<circle fill="url(#SVGID_40_)" cx="175.603" cy="1066.121" r="13.628"/>
				<circle fill="#350FA2" cx="175.603" cy="1066.121" r="4.956"/>
			</g>
			<g>
				<circle fill="#350FA2" cx="432.838" cy="1066.121" r="26.163"/>
				<linearGradient id="SVGID_41_" gradientUnits="userSpaceOnUse" x1="419.209" y1="1066.1211" x2="446.4658" y2="1066.1211">
					<stop  offset="0" style="stop-color:#60A1E3"/>
					<stop  offset="1" style="stop-color:#5D5FD0"/>
				</linearGradient>
				<circle fill="url(#SVGID_41_)" cx="432.837" cy="1066.121" r="13.628"/>
				<circle fill="#350FA2" cx="432.837" cy="1065.393" r="4.956"/>
			</g>
		</g>
	</g>
	<g>
		<g>
			<g>
				<polygon fill="#808285" points="231.85,990.117 233.428,975.723 234.502,975.707 233.074,990.1 				"/>
				<g>
					<path fill="#350FA2" d="M236.025,987.907c0.89-0.371,8.062,0.239,8.062,0.239l-0.251,13.346l-2.734,1.142l-7.322-2.964
						L236.025,987.907z"/>
					<path fill="#FFFFFF" d="M245.096,994.321c0.056,3.807-0.908,7.051-1.26,7.171c-0.447,0.153-1.057-2.624-1.113-6.431
						c-0.056-3.808,0.892-6.908,1.364-6.915C244.561,988.14,245.041,990.515,245.096,994.321z"/>
				</g>
				<path fill="#FF6F69" d="M92.384,1029.377l-9.244,0.136l-0.044-2.954c-0.043-2.929,2.297-5.339,5.226-5.382l3.94-0.059
					L92.384,1029.377z"/>
				<polygon fill="#C132AE" points="100.951,1024.415 99.199,1012.756 114.074,1012.537 129.094,1022.21 132.042,1028.793 
					100.602,1029.256 				"/>
				<g>
					<g>
						<g>
							<path fill="#6099DC" d="M265.648,1086.579c-0.091,0-0.183-0.017-0.273-0.053c-0.375-0.15-0.557-0.577-0.407-0.952
								l12.228-30.473c0.151-0.376,0.574-0.561,0.953-0.407c0.375,0.15,0.557,0.577,0.407,0.952l-12.228,30.473
								C266.213,1086.405,265.938,1086.579,265.648,1086.579z"/>
							<path fill="#6099DC" d="M286.999,1077.456c-0.091,0-0.183-0.017-0.273-0.053l-30.473-12.228
								c-0.375-0.15-0.557-0.577-0.407-0.952c0.15-0.376,0.576-0.561,0.953-0.407l30.473,12.228c0.375,0.15,0.557,0.577,0.407,0.952
								C287.563,1077.282,287.289,1077.456,286.999,1077.456z"/>
						</g>
						<g>
							<path fill="#6099DC" d="M277.781,1086.616c-0.292,0-0.568-0.176-0.681-0.464l-12.038-30.548
								c-0.148-0.376,0.037-0.802,0.413-0.95c0.377-0.146,0.802,0.037,0.95,0.413l12.038,30.548c0.148,0.376-0.037,0.802-0.413,0.95
								C277.961,1086.6,277.871,1086.616,277.781,1086.616z"/>
							<path fill="#6099DC" d="M256.488,1077.361c-0.292,0-0.568-0.176-0.681-0.464c-0.148-0.376,0.037-0.802,0.413-0.95
								l30.548-12.038c0.377-0.146,0.802,0.037,0.95,0.413c0.148,0.376-0.037,0.802-0.413,0.95l-30.548,12.038
								C256.668,1077.345,256.578,1077.361,256.488,1077.361z"/>
						</g>
						<g>
							<path fill="#6099DC" d="M283.541,1082.779c-0.184,0-0.368-0.069-0.51-0.207l-23.557-22.873
								c-0.29-0.282-0.297-0.745-0.015-1.035c0.282-0.291,0.745-0.296,1.036-0.016l23.557,22.873
								c0.29,0.282,0.297,0.745,0.015,1.035C283.922,1082.705,283.731,1082.779,283.541,1082.779z"/>
							<path fill="#6099DC" d="M260.326,1083.121c-0.184,0-0.368-0.069-0.51-0.207c-0.29-0.282-0.297-0.745-0.015-1.035
								l22.873-23.557c0.282-0.292,0.745-0.296,1.036-0.016c0.29,0.282,0.297,0.745,0.015,1.035l-22.873,23.557
								C260.708,1083.047,260.517,1083.121,260.326,1083.121z"/>
						</g>
						<g>
							<path fill="#6099DC" d="M255.347,1071.584c-0.4,0-0.727-0.321-0.732-0.722c-0.006-0.404,0.317-0.737,0.722-0.743
								l32.831-0.483c0.003,0,0.007,0,0.011,0c0.399,0,0.727,0.321,0.732,0.722c0.006,0.404-0.317,0.737-0.722,0.743l-32.831,0.483
								C255.354,1071.584,255.35,1071.584,255.347,1071.584z"/>
							<path fill="#6099DC" d="M272.004,1087.758c-0.399,0-0.727-0.321-0.732-0.722l-0.483-32.831
								c-0.006-0.404,0.317-0.737,0.722-0.743c0.423,0.005,0.737,0.318,0.743,0.722l0.483,32.831
								c0.006,0.404-0.317,0.737-0.722,0.743C272.011,1087.758,272.007,1087.758,272.004,1087.758z"/>
						</g>
					</g>
					<linearGradient id="SVGID_42_" gradientUnits="userSpaceOnUse" x1="264.8833" y1="1070.6104" x2="278.6411" y2="1070.6104">
						<stop  offset="0" style="stop-color:#60A1E3"/>
						<stop  offset="1" style="stop-color:#5D5FD0"/>
					</linearGradient>
					<circle fill="url(#SVGID_42_)" cx="271.762" cy="1070.61" r="6.879"/>
					<circle fill="#350FA2" cx="271.762" cy="1070.61" r="2.982"/>
					<g id="XMLID_55_">
						<path fill="#350FA2" d="M271.407,1046.396c13.373-0.196,24.374,10.485,24.571,23.857
							c0.197,13.373-10.484,24.374-23.857,24.571c-13.377,0.197-24.378-10.484-24.575-23.857
							C247.348,1057.594,258.03,1046.593,271.407,1046.396z M288.186,1070.368c-0.133-9.07-7.595-16.314-16.665-16.181
							s-16.314,7.595-16.181,16.665c0.134,9.069,7.595,16.313,16.665,16.181C281.075,1086.899,288.32,1079.438,288.186,1070.368z"/>
					</g>
				</g>
				<path fill="#C132AE" d="M119.426,1019.926l-27.164,1.192c0,0-14.121,7.887-21.801,35.927l2.805-0.3
					c0,0,3.707-21.903,19.046-32.202l35.272-0.475L119.426,1019.926z"/>
				<g>
					<g>
						<g>
							<path fill="#6099DC" d="M107.29,1085.93c-0.091,0-0.183-0.017-0.273-0.053c-0.375-0.15-0.557-0.577-0.407-0.952
								l12.228-30.473c0.15-0.376,0.575-0.561,0.953-0.407c0.375,0.15,0.557,0.577,0.407,0.952l-12.228,30.473
								C107.854,1085.756,107.58,1085.93,107.29,1085.93z"/>
							<path fill="#6099DC" d="M128.64,1076.808c-0.091,0-0.183-0.017-0.273-0.053l-30.473-12.228
								c-0.375-0.15-0.557-0.577-0.407-0.952c0.15-0.376,0.575-0.559,0.953-0.407l30.473,12.228c0.375,0.15,0.557,0.577,0.407,0.952
								C129.205,1076.634,128.93,1076.808,128.64,1076.808z"/>
						</g>
						<g>
							<path fill="#6099DC" d="M119.422,1085.968c-0.292,0-0.568-0.176-0.681-0.464l-12.038-30.548
								c-0.148-0.376,0.037-0.802,0.413-0.95c0.378-0.146,0.801,0.037,0.95,0.413l12.038,30.548c0.148,0.376-0.037,0.802-0.413,0.95
								C119.603,1085.951,119.512,1085.968,119.422,1085.968z"/>
							<path fill="#6099DC" d="M98.129,1076.713c-0.292,0-0.568-0.176-0.681-0.464c-0.148-0.376,0.037-0.802,0.413-0.95
								l30.548-12.038c0.378-0.146,0.801,0.037,0.95,0.413s-0.037,0.802-0.413,0.95l-30.548,12.038
								C98.31,1076.696,98.219,1076.713,98.129,1076.713z"/>
						</g>
						<g>
							<path fill="#6099DC" d="M125.182,1082.13c-0.184,0-0.368-0.069-0.51-0.207l-23.557-22.873
								c-0.29-0.281-0.297-0.745-0.015-1.035c0.282-0.291,0.745-0.296,1.036-0.016l23.557,22.873
								c0.29,0.281,0.297,0.745,0.015,1.035C125.564,1082.056,125.373,1082.13,125.182,1082.13z"/>
							<path fill="#6099DC" d="M101.967,1082.472c-0.184,0-0.368-0.069-0.51-0.207c-0.29-0.282-0.297-0.745-0.015-1.035
								l22.873-23.557c0.282-0.292,0.745-0.296,1.036-0.016c0.29,0.282,0.297,0.745,0.015,1.035l-22.873,23.557
								C102.349,1082.397,102.158,1082.472,101.967,1082.472z"/>
						</g>
						<g>
							<path fill="#6099DC" d="M96.988,1070.936c-0.4,0-0.727-0.321-0.732-0.722c-0.006-0.404,0.317-0.737,0.722-0.743l32.831-0.483
								c0.385,0.018,0.737,0.318,0.743,0.722c0.006,0.404-0.317,0.737-0.722,0.743l-32.831,0.483
								C96.995,1070.936,96.991,1070.936,96.988,1070.936z"/>
							<path fill="#6099DC" d="M113.645,1087.109c-0.399,0-0.727-0.321-0.732-0.722l-0.483-32.831
								c-0.006-0.404,0.317-0.737,0.722-0.743c0.411-0.037,0.737,0.317,0.743,0.722l0.483,32.831
								c0.006,0.404-0.317,0.737-0.722,0.743C113.652,1087.109,113.648,1087.109,113.645,1087.109z"/>
						</g>
					</g>
					<linearGradient id="SVGID_43_" gradientUnits="userSpaceOnUse" x1="106.5249" y1="1069.9609" x2="120.2822" y2="1069.9609">
						<stop  offset="0" style="stop-color:#60A1E3"/>
						<stop  offset="1" style="stop-color:#5D5FD0"/>
					</linearGradient>
					<circle fill="url(#SVGID_43_)" cx="113.404" cy="1069.961" r="6.878"/>
					<circle fill="#350FA2" cx="113.404" cy="1069.961" r="2.982"/>
					<g id="XMLID_52_">
						<g>
							<path fill="#350FA2" d="M113.048,1045.747c13.373-0.197,24.374,10.484,24.571,23.857
								c0.197,13.373-10.484,24.374-23.857,24.571c-13.377,0.196-24.378-10.485-24.575-23.857
								C88.989,1056.945,99.671,1045.944,113.048,1045.747z M129.828,1069.72c-0.134-9.07-7.595-16.314-16.665-16.182
								c-9.07,0.134-16.314,7.595-16.181,16.665c0.134,9.069,7.595,16.314,16.665,16.181S129.961,1078.789,129.828,1069.72z"/>
						</g>
					</g>
				</g>
				<g>
					<path fill="#753397" d="M147.418,1037.712c-10.461-12.593-32.295-8.67-50.458-8.489c-7.146,0.071-13.306,5.22-18.152,11.44
						c-1.142,2.362-2.192,5.012-3.063,7.986c0.034,2.328,3.773,7.005,9.117,5.06c0,0,28.76-15.65,50.888,9.409l1.9,8.617
						l18.498,1.386C156.075,1063.952,154.876,1046.691,147.418,1037.712z"/>
					<linearGradient id="SVGID_44_" gradientUnits="userSpaceOnUse" x1="78.8076" y1="1048.4258" x2="190.9248" y2="1048.4258">
						<stop  offset="0" style="stop-color:#FF31C4"/>
						<stop  offset="1" style="stop-color:#9A2E9E"/>
					</linearGradient>
					<path fill="url(#SVGID_44_)" d="M190.925,1068.891l-8.369-8.92l-8.824-18.495c0,0-1.309-12.875,4.008-18.191l-35.697,0.526
						l-49.73,0.732c0,0-7.882,4.485-13.505,16.12c4.846-6.221,11.006-11.369,18.152-11.44c18.163-0.181,39.997-4.104,50.458,8.489
						c7.458,8.979,8.657,26.24,8.731,35.409l5.968,0.447L190.925,1068.891z"/>
				</g>
				<linearGradient id="SVGID_45_" gradientUnits="userSpaceOnUse" x1="73.3579" y1="989.5352" x2="116.7168" y2="989.5352">
					<stop  offset="0" style="stop-color:#FFC572"/>
					<stop  offset="1" style="stop-color:#FF4EB3"/>
				</linearGradient>
				<polygon fill="url(#SVGID_45_)" points="116.717,1008.645 73.93,1009.275 73.358,970.425 116.145,969.795 				"/>
				
					<rect x="78.6" y="1009.978" transform="matrix(0.9999 -0.0147 0.0147 0.9999 -14.8932 1.5293)" fill="#782388" width="35.455" height="2.821"/>
				<linearGradient id="SVGID_46_" gradientUnits="userSpaceOnUse" x1="60.5684" y1="972.1113" x2="103.4611" y2="972.549">
					<stop  offset="0" style="stop-color:#FFC572"/>
					<stop  offset="0.1481" style="stop-color:#FFBC77"/>
					<stop  offset="0.3869" style="stop-color:#FFA584"/>
					<stop  offset="0.6865" style="stop-color:#FF7E99"/>
					<stop  offset="1" style="stop-color:#FF4EB3"/>
				</linearGradient>
				<polygon fill="url(#SVGID_46_)" points="116.214,974.495 73.427,975.125 73.358,970.425 116.145,969.795 				"/>
				
					<rect x="94.153" y="1011.314" transform="matrix(0.9999 -0.0146 0.0146 0.9999 -14.8937 1.5037)" fill="#350FA2" width="2.674" height="17.929"/>
				<path fill="#753397" d="M244.236,1068.105c0,0,8.183-18.925,43.588-22.535c0,0-12.183-15.535-40.649-5.849
					C247.175,1039.722,237.383,1058.805,244.236,1068.105z"/>
				<polygon fill="#5876D6" points="264.533,1050.966 273.064,1070.859 271.284,1071.603 261.792,1048.937 263.37,1047.99 				"/>
				<path fill="#350FA2" d="M259.632,1034.312l6.218,14.862l-4.981,2.223l-6.417-16.202
					C254.452,1035.194,256.839,1033.1,259.632,1034.312z"/>
				<path fill="#350FA2" d="M265.079,1033.28l0.685-2.115c0,0-10.789-20.069-24.661-28.531l-2.015,1.704L265.079,1033.28z"/>
				<linearGradient id="SVGID_47_" gradientUnits="userSpaceOnUse" x1="155.5249" y1="1032.6582" x2="265.0786" y2="1032.6582">
					<stop  offset="0" style="stop-color:#FF31C4"/>
					<stop  offset="1" style="stop-color:#9A2E9E"/>
				</linearGradient>
				<path fill="url(#SVGID_47_)" d="M231.85,990.117l-3.642,8.113l1.762,9.465c4.534,5.839,8.842,12.297,11.954,22.03
					c0,0-18.207,28.385-26.561,32.627c0,0-17.883,1.696-30.467-1.521l-2.341-0.86c0,0,2.47,3.545,2.303,4.354
					c-0.167,0.808-10.137,4.806-28.803,2.036c0,0-1.254,2.991,0.093,6.761l76.449,4.289c0,0,11.921-35.635,32.48-44.13
					c-6.262-11.187-14.546-21.283-26.042-32.39l-3.012-12.983L231.85,990.117z"/>
				<path fill="#350FA2" d="M231.85,990.117c0,0-3.498-0.396-4.534,2.216c-1.036,2.612,2.359,5.159,2.359,5.159l2.822-5.951
					L231.85,990.117z"/>
				<path fill="#414042" d="M231.368,994.382l-4.918,2.615l0.615,2.996l5.51-3.171c0,0,0.675-0.487,0.567-1.524
					C233.054,994.455,232.115,993.984,231.368,994.382z"/>
				<path fill="#350FA2" d="M171.48,1025.392l8.547-1.841c0.915-0.197,1.587-0.988,1.619-1.923c0.099-2.91-0.329-8.873-5.332-10.008
					c-5.562-1.262-43.278-2.61-55.667-3.023c-3.435-0.115-6.616,1.985-7.696,5.247c-1.18,3.563,0.179,7.981,11.807,10.221
					C146.136,1028.183,171.48,1025.392,171.48,1025.392z"/>
				<path fill="#350FA2" d="M233.375,972.097l-0.445,8.178c0,0,2.967-0.886,3.196-3.797
					C236.155,976.104,234.827,973.419,233.375,972.097z"/>
			</g>
			<g>
				<path fill="#F8A595" d="M190.997,940.634l-6.814-6.594c2.694-2.841,4.742-6.029,5.974-9.657l6.967,8.572
					C194.741,934.688,192.632,937.083,190.997,940.634z"/>
				<path fill="#F8A595" d="M207.301,926.349c0,0,0.755,4.615,1.083,6.479l-2.802-0.322L207.301,926.349z"/>
				<path fill="#F7A08C" d="M206.877,931.82c-0.308,1.273-1.957,5.272-1.957,5.272c-1.115,1.006-2.126,1.236-3.622,1.096
					c-3.621-0.343-7.021-2.26-9.382-5.027c-2.36-2.767-3.704-6.335-4.007-9.96c-0.386-4.604,1.305-9.834,5.483-11.809
					c4.207-1.987,12.074-0.469,14.594,3.698C210.627,919.458,207.979,927.262,206.877,931.82z"/>
				<polygon fill="#350FA2" points="210.472,914.614 216.614,918.812 216.52,919.634 203.311,918.119 				"/>
				<path fill="#F7A08C" d="M216.768,995.862c1.926,1.767,4.604,2.684,7.208,2.469c-0.385-0.898,0.225-2.042,1.161-2.323
					c0.936-0.281,2.012,0.248,2.463,1.115c0.452,0.866,0.313,1.974-0.239,2.78c-0.833-0.104-1.675-0.142-2.515-0.11
					c0.541,1.837,2.831,2.69,4.696,2.257c1.866-0.434,3.36-1.801,4.668-3.2c0.226-0.241,0.458-0.502,0.522-0.826
					c0.092-0.466-0.185-0.919-0.459-1.308c-1.179-1.668-2.546-3.204-4.068-4.567c-0.443-0.396-0.921-0.791-1.5-0.931
					c-0.62-0.149-1.266,0.013-1.891,0.138c-2.394,0.479-5.728-0.149-8.089-0.771L216.768,995.862z"/>
				<linearGradient id="SVGID_48_" gradientUnits="userSpaceOnUse" x1="181.8013" y1="916.752" x2="211.6499" y2="916.752">
					<stop  offset="0" style="stop-color:#FFC572"/>
					<stop  offset="1" style="stop-color:#FF4EB3"/>
				</linearGradient>
				<path fill="url(#SVGID_48_)" d="M205.45,917.688c0.042,0.274-5.34,12.094-5.34,12.094l-16.439-1.885
					c0,0-7.784-21.71,8.419-23.907c16.203-2.197,19.29,9.781,19.553,11.028S205.45,917.688,205.45,917.688z"/>
				<polygon fill="#350FA2" points="199.19,937.808 196.675,936.863 197.705,927.885 200.293,928.182 				"/>
				<path fill="#350FA2" d="M204.324,1057.268l-2.321,8.847l-0.498,4.341l27.353,3.137l0,0c0.287-2.505-1.382-4.874-3.972-5.639
					l-5.863-1.73l-4.642-5.496l-0.418-1.896L204.324,1057.268z"/>
				<g>
					<linearGradient id="SVGID_49_" gradientUnits="userSpaceOnUse" x1="164.8574" y1="962.7461" x2="190.9157" y2="974.0544">
						<stop  offset="0" style="stop-color:#92D2FF"/>
						<stop  offset="1" style="stop-color:#28A0FF"/>
					</linearGradient>
					<path fill="url(#SVGID_49_)" d="M179.05,997.818c1.625-0.452,3.078-0.834,4.375-1.157c0.624-2.26,13.313-48.598,7.571-56.027
						l-4.616-6.748c0,0-10.049-6.829-20.27,23.36c-5.969,17.632-11.634,30.219-12.596,38.815
						C159.186,997.429,171.514,999.914,179.05,997.818z"/>
					<linearGradient id="SVGID_50_" gradientUnits="userSpaceOnUse" x1="198.6172" y1="989.5654" x2="187.9098" y2="1017.0987">
						<stop  offset="0" style="stop-color:#60A1E3"/>
						<stop  offset="1" style="stop-color:#5D5FD0"/>
					</linearGradient>
					<path fill="url(#SVGID_50_)" d="M228.881,1015.288c-0.414-8.183-45.481-18.539-45.481-18.539s0.01-0.035,0.025-0.088
						c-1.294,0.291-2.742,0.636-4.362,1.045c-7.514,1.896-19.85-0.518-25.526-1.836c-0.637,5.702,0.52,12.028,6.212,14.36
						c13.686,5.606,52.005,11.093,52.005,11.093l-7.595,36.571l9.804,0.937C213.963,1058.831,229.294,1023.472,228.881,1015.288z"/>
				</g>
				<linearGradient id="SVGID_51_" gradientUnits="userSpaceOnUse" x1="209.1484" y1="952.0752" x2="194.2813" y2="982.684">
					<stop  offset="0" style="stop-color:#92D2FF"/>
					<stop  offset="1" style="stop-color:#28A0FF"/>
				</linearGradient>
				<path fill="url(#SVGID_51_)" d="M191.382,978.178c-0.751-8.429-1.503-16.857-2.254-25.286c-2.779-6.016-6.092-6.142-9.747-2.494
					c-0.752,9.211-0.086,18.536,1.966,27.547c0.337,1.479,0.723,2.979,1.538,4.258c0.832,1.308,2.063,2.309,3.324,3.209
					c9.3,6.644,20.556,9.311,31.792,11.401c0.361-2.09,1.102-4.59,1.463-6.68C210.304,985.86,200.948,981.441,191.382,978.178z"/>
			</g>
			<circle fill="#350FA2" cx="225.759" cy="998.451" r="2.398"/>
		</g>
		<g>
			<rect x="13.103" y="1021.278" fill="#231F20" width="54.131" height="0.443"/>
		</g>
		<g>
			<rect x="26.954" y="1030.078" fill="#231F20" width="39.291" height="0.443"/>
		</g>
		<g>
			<rect x="30.254" y="1012.746" fill="#231F20" width="39.291" height="0.443"/>
		</g>
	</g>
</g>
</svg>
